<svg width="13" height="14" viewBox="0 0 13 14" fill="none" xmlns="http://www.w3.org/2000/svg">
<path d="M6.62042 0.594955C6.11596 0.594955 4.11185 0.807849 3.31913 2.00943C3.08578 2.35944 6.47286 2.18624 5.87917 2.58677C5.16195 3.07029 3.47699 3.85691 1.93616 3.69093C1.72683 3.66928 1.49004 3.67288 1.31159 3.80639C1.16746 3.91464 1.10226 4.08785 1.07824 4.26465C1.01646 4.759 1.20521 5.28943 1.3665 5.74408C1.58269 6.35389 1.85037 6.93845 2.0597 7.55187C2.07686 7.60239 2.09402 7.6529 2.09402 7.70703C2.09402 7.76115 2.07343 7.81528 2.03225 7.84415C1.96361 7.88745 1.87782 7.84775 1.80919 7.80445C1.53808 7.63125 1.29786 7.40753 1.04392 7.20186C0.903219 7.08639 0.759088 6.97814 0.60123 6.88793C0.477689 6.81576 0.261492 6.6606 0.124225 6.75803C0.0487273 6.81216 0.0315687 6.92401 0.028137 7.02144C-0.00961159 7.76476 0.0933392 8.5153 0.323263 9.21893C0.512006 9.80348 0.783109 10.3556 1.11598 10.8607C1.45229 11.3731 1.8538 11.835 2.30335 12.2427C2.7529 12.6505 3.25393 13.0005 3.78584 13.2783C4.31775 13.5562 4.88741 13.7619 5.4708 13.8809C5.85172 13.9567 6.2395 14 6.62728 14C10.1482 14 12.9999 11.0015 12.9999 7.29928C12.9999 3.59711 10.1413 0.594955 6.62042 0.594955ZM6.62042 10.9004C4.72613 10.9004 3.19216 9.28749 3.19216 7.29567C3.19216 5.30386 4.72613 3.69093 6.62042 3.69093C8.51471 3.69093 10.0487 5.30386 10.0487 7.29567C10.0487 9.28749 8.51471 10.9004 6.62042 10.9004Z" fill="#FAFAFA"/>
</svg>
