<svg width="14" height="18" viewBox="0 0 14 18" fill="none" xmlns="http://www.w3.org/2000/svg">
<path d="M6.8451 0C4.48611 0 2.56691 1.92856 2.56691 4.29906V6.8785H1.71128C1.25742 6.8785 0.822148 7.05967 0.501221 7.38216C0.180295 7.70465 0 8.14205 0 8.59812V15.4766C0 15.9327 0.180295 16.3701 0.501221 16.6926C0.822148 17.0151 1.25742 17.1962 1.71128 17.1962H11.9789C12.4328 17.1962 12.8681 17.0151 13.189 16.6926C13.5099 16.3701 13.6902 15.9327 13.6902 15.4766V8.59812C13.6902 8.14205 13.5099 7.70465 13.189 7.38216C12.8681 7.05967 12.4328 6.8785 11.9789 6.8785H11.1233V4.29906C11.1233 1.92856 9.2041 0 6.8451 0ZM4.27819 4.29906C4.27819 2.87693 5.42988 1.71962 6.8451 1.71962C8.26033 1.71962 9.41202 2.87693 9.41202 4.29906V6.8785H4.27819V4.29906ZM7.70074 13.5188V15.4766H5.98947V13.5188C5.69032 13.3467 5.45012 13.0875 5.30053 12.7754C5.15094 12.4633 5.09899 12.113 5.15153 11.7706C5.20406 11.4283 5.35862 11.11 5.59482 10.8576C5.83101 10.6053 6.13776 10.4309 6.47461 10.3573C6.72482 10.3017 6.98425 10.3033 7.23377 10.3618C7.4833 10.4204 7.71656 10.5345 7.91635 10.6958C8.11614 10.857 8.27737 11.0613 8.38814 11.2935C8.49891 11.5257 8.5564 11.7799 8.55638 12.0374C8.55589 12.3381 8.47654 12.6334 8.32632 12.8934C8.17611 13.1535 7.96034 13.3692 7.70074 13.5188Z" fill="white"/>
<path d="M6.8451 0C4.48611 0 2.56691 1.92856 2.56691 4.29906V6.8785H1.71128C1.25742 6.8785 0.822148 7.05967 0.501221 7.38216C0.180295 7.70465 0 8.14205 0 8.59812V15.4766C0 15.9327 0.180295 16.3701 0.501221 16.6926C0.822148 17.0151 1.25742 17.1962 1.71128 17.1962H11.9789C12.4328 17.1962 12.8681 17.0151 13.189 16.6926C13.5099 16.3701 13.6902 15.9327 13.6902 15.4766V8.59812C13.6902 8.14205 13.5099 7.70465 13.189 7.38216C12.8681 7.05967 12.4328 6.8785 11.9789 6.8785H11.1233V4.29906C11.1233 1.92856 9.2041 0 6.8451 0ZM4.27819 4.29906C4.27819 2.87693 5.42988 1.71962 6.8451 1.71962C8.26033 1.71962 9.41202 2.87693 9.41202 4.29906V6.8785H4.27819V4.29906ZM7.70074 13.5188V15.4766H5.98947V13.5188C5.69032 13.3467 5.45012 13.0875 5.30053 12.7754C5.15094 12.4633 5.09899 12.113 5.15153 11.7706C5.20406 11.4283 5.35862 11.11 5.59482 10.8576C5.83101 10.6053 6.13776 10.4309 6.47461 10.3573C6.72482 10.3017 6.98425 10.3033 7.23377 10.3618C7.4833 10.4204 7.71656 10.5345 7.91635 10.6958C8.11614 10.857 8.27737 11.0613 8.38814 11.2935C8.49891 11.5257 8.5564 11.7799 8.55638 12.0374C8.55589 12.3381 8.47654 12.6334 8.32632 12.8934C8.17611 13.1535 7.96034 13.3692 7.70074 13.5188Z" fill="url(#paint0_linear_217_143)" fill-opacity="0.4"/>
<path d="M6.8451 0C4.48611 0 2.56691 1.92856 2.56691 4.29906V6.8785H1.71128C1.25742 6.8785 0.822148 7.05967 0.501221 7.38216C0.180295 7.70465 0 8.14205 0 8.59812V15.4766C0 15.9327 0.180295 16.3701 0.501221 16.6926C0.822148 17.0151 1.25742 17.1962 1.71128 17.1962H11.9789C12.4328 17.1962 12.8681 17.0151 13.189 16.6926C13.5099 16.3701 13.6902 15.9327 13.6902 15.4766V8.59812C13.6902 8.14205 13.5099 7.70465 13.189 7.38216C12.8681 7.05967 12.4328 6.8785 11.9789 6.8785H11.1233V4.29906C11.1233 1.92856 9.2041 0 6.8451 0ZM4.27819 4.29906C4.27819 2.87693 5.42988 1.71962 6.8451 1.71962C8.26033 1.71962 9.41202 2.87693 9.41202 4.29906V6.8785H4.27819V4.29906ZM7.70074 13.5188V15.4766H5.98947V13.5188C5.69032 13.3467 5.45012 13.0875 5.30053 12.7754C5.15094 12.4633 5.09899 12.113 5.15153 11.7706C5.20406 11.4283 5.35862 11.11 5.59482 10.8576C5.83101 10.6053 6.13776 10.4309 6.47461 10.3573C6.72482 10.3017 6.98425 10.3033 7.23377 10.3618C7.4833 10.4204 7.71656 10.5345 7.91635 10.6958C8.11614 10.857 8.27737 11.0613 8.38814 11.2935C8.49891 11.5257 8.5564 11.7799 8.55638 12.0374C8.55589 12.3381 8.47654 12.6334 8.32632 12.8934C8.17611 13.1535 7.96034 13.3692 7.70074 13.5188Z" fill="url(#paint1_linear_217_143)" fill-opacity="0.3"/>
<defs>
<linearGradient id="paint0_linear_217_143" x1="6.8451" y1="17.1962" x2="6.8451" y2="5.18416" gradientUnits="userSpaceOnUse">
<stop stop-color="#1A343F"/>
<stop offset="1" stop-color="#1A3540" stop-opacity="0"/>
</linearGradient>
<linearGradient id="paint1_linear_217_143" x1="7.3424" y1="8.30846e-08" x2="2.34522" y2="1.6034" gradientUnits="userSpaceOnUse">
<stop offset="0.619316" stop-color="white" stop-opacity="0"/>
<stop offset="0.622568" stop-color="white"/>
</linearGradient>
</defs>
</svg>
