<svg width="57" height="18" viewBox="0 0 57 18" fill="none" xmlns="http://www.w3.org/2000/svg">
<path d="M6.8451 0C4.48611 0 2.56691 1.92856 2.56691 4.29906V6.8785H1.71128C1.25742 6.8785 0.822148 7.05967 0.501221 7.38216C0.180295 7.70465 0 8.14205 0 8.59812V15.4766C0 15.9327 0.180295 16.3701 0.501221 16.6926C0.822148 17.0151 1.25742 17.1962 1.71128 17.1962H11.9789C12.4328 17.1962 12.8681 17.0151 13.189 16.6926C13.5099 16.3701 13.6902 15.9327 13.6902 15.4766V8.59812C13.6902 8.14205 13.5099 7.70465 13.189 7.38216C12.8681 7.05967 12.4328 6.8785 11.9789 6.8785H11.1233V4.29906C11.1233 1.92856 9.2041 0 6.8451 0ZM4.27819 4.29906C4.27819 2.87693 5.42988 1.71962 6.8451 1.71962C8.26033 1.71962 9.41202 2.87693 9.41202 4.29906V6.8785H4.27819V4.29906ZM7.70074 13.5188V15.4766H5.98947V13.5188C5.69032 13.3467 5.45012 13.0875 5.30053 12.7754C5.15094 12.4633 5.09899 12.113 5.15153 11.7706C5.20406 11.4283 5.35862 11.11 5.59482 10.8576C5.83101 10.6053 6.13776 10.4309 6.47461 10.3573C6.72482 10.3017 6.98425 10.3033 7.23377 10.3618C7.4833 10.4204 7.71656 10.5345 7.91635 10.6958C8.11614 10.857 8.27737 11.0613 8.38814 11.2935C8.49891 11.5257 8.5564 11.7799 8.55638 12.0374C8.55589 12.3381 8.47654 12.6334 8.32632 12.8934C8.17611 13.1535 7.96034 13.3692 7.70074 13.5188Z" fill="white"/>
<path d="M6.8451 0C4.48611 0 2.56691 1.92856 2.56691 4.29906V6.8785H1.71128C1.25742 6.8785 0.822148 7.05967 0.501221 7.38216C0.180295 7.70465 0 8.14205 0 8.59812V15.4766C0 15.9327 0.180295 16.3701 0.501221 16.6926C0.822148 17.0151 1.25742 17.1962 1.71128 17.1962H11.9789C12.4328 17.1962 12.8681 17.0151 13.189 16.6926C13.5099 16.3701 13.6902 15.9327 13.6902 15.4766V8.59812C13.6902 8.14205 13.5099 7.70465 13.189 7.38216C12.8681 7.05967 12.4328 6.8785 11.9789 6.8785H11.1233V4.29906C11.1233 1.92856 9.2041 0 6.8451 0ZM4.27819 4.29906C4.27819 2.87693 5.42988 1.71962 6.8451 1.71962C8.26033 1.71962 9.41202 2.87693 9.41202 4.29906V6.8785H4.27819V4.29906ZM7.70074 13.5188V15.4766H5.98947V13.5188C5.69032 13.3467 5.45012 13.0875 5.30053 12.7754C5.15094 12.4633 5.09899 12.113 5.15153 11.7706C5.20406 11.4283 5.35862 11.11 5.59482 10.8576C5.83101 10.6053 6.13776 10.4309 6.47461 10.3573C6.72482 10.3017 6.98425 10.3033 7.23377 10.3618C7.4833 10.4204 7.71656 10.5345 7.91635 10.6958C8.11614 10.857 8.27737 11.0613 8.38814 11.2935C8.49891 11.5257 8.5564 11.7799 8.55638 12.0374C8.55589 12.3381 8.47654 12.6334 8.32632 12.8934C8.17611 13.1535 7.96034 13.3692 7.70074 13.5188Z" fill="url(#paint0_linear_374_142)" fill-opacity="0.4"/>
<path d="M6.8451 0C4.48611 0 2.56691 1.92856 2.56691 4.29906V6.8785H1.71128C1.25742 6.8785 0.822148 7.05967 0.501221 7.38216C0.180295 7.70465 0 8.14205 0 8.59812V15.4766C0 15.9327 0.180295 16.3701 0.501221 16.6926C0.822148 17.0151 1.25742 17.1962 1.71128 17.1962H11.9789C12.4328 17.1962 12.8681 17.0151 13.189 16.6926C13.5099 16.3701 13.6902 15.9327 13.6902 15.4766V8.59812C13.6902 8.14205 13.5099 7.70465 13.189 7.38216C12.8681 7.05967 12.4328 6.8785 11.9789 6.8785H11.1233V4.29906C11.1233 1.92856 9.2041 0 6.8451 0ZM4.27819 4.29906C4.27819 2.87693 5.42988 1.71962 6.8451 1.71962C8.26033 1.71962 9.41202 2.87693 9.41202 4.29906V6.8785H4.27819V4.29906ZM7.70074 13.5188V15.4766H5.98947V13.5188C5.69032 13.3467 5.45012 13.0875 5.30053 12.7754C5.15094 12.4633 5.09899 12.113 5.15153 11.7706C5.20406 11.4283 5.35862 11.11 5.59482 10.8576C5.83101 10.6053 6.13776 10.4309 6.47461 10.3573C6.72482 10.3017 6.98425 10.3033 7.23377 10.3618C7.4833 10.4204 7.71656 10.5345 7.91635 10.6958C8.11614 10.857 8.27737 11.0613 8.38814 11.2935C8.49891 11.5257 8.5564 11.7799 8.55638 12.0374C8.55589 12.3381 8.47654 12.6334 8.32632 12.8934C8.17611 13.1535 7.96034 13.3692 7.70074 13.5188Z" fill="url(#paint1_linear_374_142)" fill-opacity="0.3"/>
<path d="M22.3419 10.9374C21.8609 10.9374 21.4205 10.8765 21.0206 10.7548C20.6208 10.6273 20.2818 10.4506 20.0037 10.2246L20.2905 9.51183C20.5802 9.73204 20.8903 9.89719 21.2206 10.0073C21.5509 10.1174 21.9246 10.1724 22.3419 10.1724C22.8344 10.1724 23.1966 10.0855 23.4284 9.91168C23.666 9.73204 23.7848 9.50024 23.7848 9.2163C23.7848 8.9845 23.7008 8.80197 23.5327 8.66868C23.3647 8.52961 23.0836 8.41951 22.6896 8.33838L21.7595 8.14715C21.209 8.03125 20.7975 7.84002 20.5252 7.57346C20.2586 7.3069 20.1253 6.94762 20.1253 6.49562C20.1253 6.13055 20.221 5.80894 20.4122 5.53078C20.6092 5.25263 20.8816 5.03822 21.2293 4.88756C21.577 4.7311 21.9768 4.65287 22.4288 4.65287C22.846 4.65287 23.2314 4.71661 23.5849 4.8441C23.9441 4.96579 24.2484 5.14543 24.4975 5.38302L24.202 6.0697C23.7094 5.63509 23.1155 5.41778 22.4201 5.41778C21.9913 5.41778 21.6494 5.5134 21.3944 5.70463C21.1452 5.89586 21.0206 6.15083 21.0206 6.46955C21.0206 6.71293 21.0989 6.90706 21.2553 7.05193C21.4118 7.1968 21.6726 7.3069 22.0376 7.38223L22.959 7.57346C23.5385 7.69515 23.9702 7.88348 24.2542 8.13846C24.5381 8.38764 24.6801 8.72663 24.6801 9.15545C24.6801 9.51473 24.5845 9.82765 24.3932 10.0942C24.202 10.3608 23.9325 10.5694 23.5849 10.7201C23.2372 10.8649 22.8228 10.9374 22.3419 10.9374ZM25.7064 10.8591V4.7311H29.67V5.46125H26.5756V7.38223H29.4875V8.11238H26.5756V10.129H29.67V10.8591H25.7064ZM33.5547 10.9374C32.9347 10.9374 32.4045 10.8099 31.964 10.5549C31.5236 10.2999 31.1846 9.93775 30.9471 9.46837C30.7153 8.9932 30.5994 8.43399 30.5994 7.79077C30.5994 7.14754 30.7153 6.59124 30.9471 6.12186C31.1846 5.65247 31.5236 5.2903 31.964 5.03533C32.4045 4.78035 32.9347 4.65287 33.5547 4.65287C33.972 4.65287 34.3602 4.71951 34.7195 4.85279C35.0846 4.98027 35.3888 5.16571 35.6322 5.40909L35.3193 6.13055C35.0527 5.89296 34.7774 5.72201 34.4935 5.61771C34.2153 5.5076 33.9111 5.45255 33.5808 5.45255C32.9202 5.45255 32.416 5.65537 32.0684 6.06101C31.7207 6.46665 31.5468 7.04323 31.5468 7.79077C31.5468 8.5383 31.7207 9.11778 32.0684 9.52922C32.416 9.93486 32.9202 10.1377 33.5808 10.1377C33.9111 10.1377 34.2153 10.0855 34.4935 9.98121C34.7774 9.87111 35.0527 9.69727 35.3193 9.45968L35.6322 10.1811C35.3888 10.4187 35.0846 10.6042 34.7195 10.7374C34.3602 10.8707 33.972 10.9374 33.5547 10.9374ZM39.1593 10.9374C38.3423 10.9374 37.7164 10.723 37.2818 10.2941C36.853 9.85952 36.6386 9.22499 36.6386 8.39053V4.7311H37.5426V8.37315C37.5426 9.56109 38.0815 10.1551 39.1593 10.1551C40.2372 10.1551 40.7761 9.56109 40.7761 8.37315V4.7311H41.6627V8.39053C41.6627 9.22499 41.4512 9.85952 41.0282 10.2941C40.6051 10.723 39.9822 10.9374 39.1593 10.9374ZM43.0569 10.8591V4.7311H45.5951C46.2557 4.7311 46.7656 4.89045 47.1249 5.20917C47.4842 5.52209 47.6638 5.9625 47.6638 6.53039C47.6638 6.98818 47.5421 7.36485 47.2987 7.66038C47.0554 7.95013 46.7106 8.14425 46.2644 8.24276C46.5425 8.33548 46.7772 8.55858 46.9684 8.91207L48.0289 10.8591H47.038L45.9775 8.90338C45.8558 8.67738 45.7138 8.52671 45.5516 8.45138C45.3951 8.37025 45.1923 8.32969 44.9431 8.32969H43.9609V10.8591H43.0569ZM43.9609 7.65169H45.4473C46.3397 7.65169 46.7859 7.28372 46.7859 6.54778C46.7859 5.81763 46.3397 5.45255 45.4473 5.45255H43.9609V7.65169ZM48.9395 10.8591V4.7311H52.9031V5.46125H49.8087V7.38223H52.7206V8.11238H49.8087V10.129H52.9031V10.8591H48.9395ZM20.3748 13.8815C20.2372 13.8815 20.1112 13.8641 19.9968 13.8293C19.8824 13.7928 19.7854 13.7422 19.7058 13.6776L19.7879 13.4737C19.8708 13.5367 19.9595 13.5839 20.054 13.6154C20.1485 13.6469 20.2554 13.6627 20.3748 13.6627C20.5157 13.6627 20.6193 13.6378 20.6856 13.5881C20.7536 13.5367 20.7876 13.4703 20.7876 13.3891C20.7876 13.3228 20.7636 13.2706 20.7155 13.2324C20.6674 13.1926 20.587 13.1611 20.4742 13.1379L20.2081 13.0832C20.0506 13.0501 19.9329 12.9953 19.855 12.9191C19.7787 12.8428 19.7406 12.74 19.7406 12.6107C19.7406 12.5063 19.768 12.4142 19.8227 12.3347C19.8791 12.2551 19.957 12.1937 20.0564 12.1506C20.1559 12.1059 20.2703 12.0835 20.3996 12.0835C20.519 12.0835 20.6293 12.1017 20.7304 12.1382C20.8332 12.173 20.9202 12.2244 20.9915 12.2924L20.907 12.4889C20.766 12.3645 20.5961 12.3023 20.3972 12.3023C20.2745 12.3023 20.1766 12.3297 20.1037 12.3844C20.0324 12.4391 19.9968 12.5121 19.9968 12.6032C19.9968 12.6729 20.0191 12.7284 20.0639 12.7699C20.1087 12.8113 20.1833 12.8428 20.2877 12.8644L20.5513 12.9191C20.7171 12.9539 20.8407 13.0078 20.9219 13.0807C21.0031 13.152 21.0437 13.249 21.0437 13.3717C21.0437 13.4745 21.0164 13.564 20.9617 13.6403C20.907 13.7165 20.8299 13.7762 20.7304 13.8193C20.6309 13.8608 20.5124 13.8815 20.3748 13.8815ZM21.9218 13.8815C21.7842 13.8815 21.6582 13.8641 21.5438 13.8293C21.4294 13.7928 21.3324 13.7422 21.2528 13.6776L21.3349 13.4737C21.4178 13.5367 21.5065 13.5839 21.601 13.6154C21.6955 13.6469 21.8024 13.6627 21.9218 13.6627C22.0627 13.6627 22.1663 13.6378 22.2327 13.5881C22.3006 13.5367 22.3346 13.4703 22.3346 13.3891C22.3346 13.3228 22.3106 13.2706 22.2625 13.2324C22.2144 13.1926 22.134 13.1611 22.0213 13.1379L21.7552 13.0832C21.5977 13.0501 21.48 12.9953 21.402 12.9191C21.3258 12.8428 21.2876 12.74 21.2876 12.6107C21.2876 12.5063 21.315 12.4142 21.3697 12.3347C21.4261 12.2551 21.504 12.1937 21.6035 12.1506C21.7029 12.1059 21.8173 12.0835 21.9467 12.0835C22.066 12.0835 22.1763 12.1017 22.2774 12.1382C22.3802 12.173 22.4673 12.2244 22.5385 12.2924L22.454 12.4889C22.3131 12.3645 22.1431 12.3023 21.9442 12.3023C21.8215 12.3023 21.7237 12.3297 21.6507 12.3844C21.5794 12.4391 21.5438 12.5121 21.5438 12.6032C21.5438 12.6729 21.5662 12.7284 21.6109 12.7699C21.6557 12.8113 21.7303 12.8428 21.8348 12.8644L22.0984 12.9191C22.2642 12.9539 22.3877 13.0078 22.4689 13.0807C22.5502 13.152 22.5908 13.249 22.5908 13.3717C22.5908 13.4745 22.5634 13.564 22.5087 13.6403C22.454 13.7165 22.3769 13.7762 22.2774 13.8193C22.1779 13.8608 22.0594 13.8815 21.9218 13.8815ZM22.8844 13.8591V12.1059H23.143V13.6378H24.011V13.8591H22.8844ZM24.9099 13.8591V12.1059H26.0439V12.3148H25.1586V12.8644H25.9917V13.0733H25.1586V13.6502H26.0439V13.8591H24.9099ZM26.3743 13.8591V12.1059H26.5708L27.5755 13.4314V12.1059H27.8142V13.8591H27.6227L26.6131 12.5286V13.8591H26.3743ZM29.0083 13.8815C28.8309 13.8815 28.6792 13.845 28.5532 13.7721C28.4272 13.6991 28.3303 13.5955 28.2623 13.4612C28.196 13.3253 28.1628 13.1653 28.1628 12.9813C28.1628 12.7972 28.196 12.6381 28.2623 12.5038C28.3303 12.3695 28.4272 12.2659 28.5532 12.1929C28.6792 12.12 28.8309 12.0835 29.0083 12.0835C29.1277 12.0835 29.2388 12.1026 29.3416 12.1407C29.446 12.1772 29.5331 12.2302 29.6027 12.2998L29.5132 12.5063C29.4369 12.4383 29.3582 12.3894 29.2769 12.3595C29.1973 12.328 29.1103 12.3123 29.0158 12.3123C28.8268 12.3123 28.6826 12.3703 28.5831 12.4864C28.4836 12.6024 28.4339 12.7674 28.4339 12.9813C28.4339 13.1951 28.4836 13.3609 28.5831 13.4786C28.6826 13.5947 28.8268 13.6527 29.0158 13.6527C29.1103 13.6527 29.1973 13.6378 29.2769 13.608C29.3582 13.5765 29.4369 13.5267 29.5132 13.4587L29.6027 13.6652C29.5331 13.7331 29.446 13.7862 29.3416 13.8243C29.2388 13.8624 29.1277 13.8815 29.0083 13.8815ZM29.9031 13.8591V12.1059H30.6293C30.8183 12.1059 30.9642 12.1515 31.067 12.2426C31.1697 12.3322 31.2211 12.4582 31.2211 12.6207C31.2211 12.7516 31.1863 12.8594 31.1167 12.944C31.0471 13.0268 30.9484 13.0824 30.8207 13.1106C30.9003 13.1371 30.9675 13.2009 31.0222 13.3021L31.3256 13.8591H31.0421L30.7387 13.2996C30.7039 13.2349 30.6632 13.1918 30.6168 13.1703C30.5721 13.147 30.514 13.1354 30.4427 13.1354H30.1617V13.8591H29.9031ZM30.1617 12.9415H30.587C30.8423 12.9415 30.97 12.8362 30.97 12.6256C30.97 12.4167 30.8423 12.3123 30.587 12.3123H30.1617V12.9415ZM31.9894 13.8591V13.0409L31.3179 12.1059H31.6164L32.1237 12.8146L32.631 12.1059H32.917L32.2455 13.0434V13.8591H31.9894ZM33.1404 13.8591V12.1059H33.8666C34.0556 12.1059 34.2015 12.1531 34.3043 12.2476C34.4071 12.3405 34.4585 12.4714 34.4585 12.6406C34.4585 12.8113 34.4071 12.944 34.3043 13.0385C34.2015 13.1313 34.0556 13.1777 33.8666 13.1777H33.3991V13.8591H33.1404ZM33.3991 12.9713H33.8293C34.0813 12.9713 34.2073 12.8611 34.2073 12.6406C34.2073 12.4217 34.0813 12.3123 33.8293 12.3123H33.3991V12.9713ZM35.1176 13.8591V12.3222H34.4959V12.1059H35.9955V12.3222H35.3738V13.8591H35.1176ZM36.2102 13.8591V12.1059H36.4688V13.8591H36.2102ZM37.6342 13.8815C37.4667 13.8815 37.3217 13.845 37.199 13.7721C37.0763 13.6975 36.981 13.593 36.913 13.4587C36.8467 13.3228 36.8135 13.1636 36.8135 12.9813C36.8135 12.7972 36.8467 12.6381 36.913 12.5038C36.981 12.3695 37.0763 12.2659 37.199 12.1929C37.3217 12.12 37.4667 12.0835 37.6342 12.0835C37.8 12.0835 37.9442 12.12 38.0669 12.1929C38.1913 12.2659 38.2866 12.3695 38.3529 12.5038C38.4209 12.6381 38.4549 12.7964 38.4549 12.9788C38.4549 13.1628 38.4209 13.3228 38.3529 13.4587C38.2866 13.593 38.1913 13.6975 38.0669 13.7721C37.9442 13.845 37.8 13.8815 37.6342 13.8815ZM37.6342 13.6577C37.8083 13.6577 37.9434 13.5988 38.0395 13.4811C38.1374 13.3618 38.1863 13.1951 38.1863 12.9813C38.1863 12.7674 38.1382 12.6016 38.042 12.4839C37.9459 12.3662 37.8099 12.3073 37.6342 12.3073C37.4601 12.3073 37.3242 12.3662 37.2263 12.4839C37.1302 12.6016 37.0821 12.7674 37.0821 12.9813C37.0821 13.1951 37.1302 13.3618 37.2263 13.4811C37.3242 13.5988 37.4601 13.6577 37.6342 13.6577ZM38.8015 13.8591V12.1059H38.998L40.0027 13.4314V12.1059H40.2414V13.8591H40.0499L39.0403 12.5286V13.8591H38.8015Z" fill="white"/>
<line x1="19.5864" y1="15.3052" x2="56.0401" y2="15.3052" stroke="#D9DDDF" stroke-width="0.597602"/>
<defs>
<linearGradient id="paint0_linear_374_142" x1="6.8451" y1="17.1962" x2="6.8451" y2="5.18416" gradientUnits="userSpaceOnUse">
<stop stop-color="#1A343F"/>
<stop offset="1" stop-color="#1A3540" stop-opacity="0"/>
</linearGradient>
<linearGradient id="paint1_linear_374_142" x1="7.3424" y1="8.30846e-08" x2="2.34522" y2="1.6034" gradientUnits="userSpaceOnUse">
<stop offset="0.619316" stop-color="white" stop-opacity="0"/>
<stop offset="0.622568" stop-color="white"/>
</linearGradient>
</defs>
</svg>
