<svg width="24" height="24" viewBox="0 0 18 18" fill="none" xmlns="http://www.w3.org/2000/svg">
<path d="M11.2992 0.976786C10.9971 0.667585 10.6362 0.421895 10.2377 0.254152C9.83928 0.0864101 9.41133 0 8.97902 0C8.54671 0 8.11875 0.0864101 7.72031 0.254152C7.32187 0.421895 6.96097 0.667585 6.65883 0.976786L5.96064 1.69293L4.96163 1.68059C4.52919 1.67547 4.10009 1.75687 3.69957 1.92C3.29905 2.08313 2.93518 2.3247 2.62938 2.63051C2.32358 2.93631 2.08201 3.30017 1.91888 3.70069C1.75575 4.10121 1.67435 4.53031 1.67946 4.96275L1.69069 5.96177L0.976786 6.65996C0.667585 6.9621 0.421894 7.32299 0.254152 7.72144C0.08641 8.11988 0 8.54783 0 8.98014C0 9.41246 0.08641 9.84041 0.254152 10.2389C0.421894 10.6373 0.667585 10.9982 0.976786 11.3003L1.69181 11.9985L1.67946 12.9975C1.67435 13.43 1.75575 13.8591 1.91888 14.2596C2.08201 14.6601 2.32358 15.024 2.62938 15.3298C2.93518 15.6356 3.29905 15.8772 3.69957 16.0403C4.10009 16.2034 4.52919 16.2848 4.96163 16.2797L5.96064 16.2685L6.65883 16.9824C6.96097 17.2916 7.32187 17.5373 7.72031 17.705C8.11875 17.8728 8.54671 17.9592 8.97902 17.9592C9.41133 17.9592 9.83928 17.8728 10.2377 17.705C10.6362 17.5373 10.9971 17.2916 11.2992 16.9824L11.9974 16.2673L12.9964 16.2797C13.4289 16.2848 13.8579 16.2034 14.2585 16.0403C14.659 15.8772 15.0229 15.6356 15.3287 15.3298C15.6345 15.024 15.876 14.6601 16.0392 14.2596C16.2023 13.8591 16.2837 13.43 16.2786 12.9975L16.2673 11.9985L16.9813 11.3003C17.2905 10.9982 17.5361 10.6373 17.7039 10.2389C17.8716 9.84041 17.958 9.41246 17.958 8.98014C17.958 8.54783 17.8716 8.11988 17.7039 7.72144C17.5361 7.32299 17.2905 6.9621 16.9813 6.65996L16.2662 5.96177L16.2786 4.96275C16.2837 4.53031 16.2023 4.10121 16.0392 3.70069C15.876 3.30017 15.6345 2.93631 15.3287 2.63051C15.0229 2.3247 14.659 2.08313 14.2585 1.92C13.8579 1.75687 13.4289 1.67547 12.9964 1.68059L11.9974 1.69181L11.2992 0.977908V0.976786ZM11.6214 7.69377L8.25389 11.0612C8.20176 11.1135 8.13982 11.155 8.07164 11.1833C8.00345 11.2116 7.93035 11.2261 7.85653 11.2261C7.78271 11.2261 7.70961 11.2116 7.64142 11.1833C7.57324 11.155 7.5113 11.1135 7.45917 11.0612L5.77543 9.3775C5.72325 9.32532 5.68186 9.26337 5.65361 9.19519C5.62537 9.12701 5.61084 9.05394 5.61084 8.98014C5.61084 8.90635 5.62537 8.83327 5.65361 8.76509C5.68186 8.69691 5.72325 8.63496 5.77543 8.58278C5.82761 8.5306 5.88956 8.48921 5.95774 8.46096C6.02592 8.43272 6.099 8.41819 6.17279 8.41819C6.24659 8.41819 6.31966 8.43272 6.38784 8.46096C6.45602 8.48921 6.51797 8.5306 6.57015 8.58278L7.85653 9.87028L10.8266 6.89905C10.932 6.79366 11.075 6.73445 11.224 6.73445C11.373 6.73445 11.516 6.79366 11.6214 6.89905C11.7267 7.00443 11.786 7.14737 11.786 7.29641C11.786 7.44545 11.7267 7.58838 11.6214 7.69377Z" fill="#21D63E"/>
</svg>
