<svg width="216" height="15" viewBox="0 0 216 15" fill="none" xmlns="http://www.w3.org/2000/svg">
<path d="M0.92 11V3.95H3.19C4.31 3.95 5.17333 4.25 5.78 4.85C6.39333 5.45 6.7 6.32333 6.7 7.47C6.7 8.61667 6.39333 9.49333 5.78 10.1C5.17333 10.7 4.31 11 3.19 11H0.92ZM1.53 10.46H3.14C5.07333 10.46 6.04 9.46333 6.04 7.47C6.04 5.48333 5.07333 4.49 3.14 4.49H1.53V10.46ZM10.644 11.08C9.89732 11.08 9.30732 10.86 8.87398 10.42C8.44732 9.97333 8.23398 9.36333 8.23398 8.59C8.23398 8.09 8.33065 7.65 8.52398 7.27C8.71732 6.89 8.98398 6.59333 9.32398 6.38C9.67065 6.16667 10.0673 6.06 10.514 6.06C11.1607 6.06 11.664 6.27 12.024 6.69C12.384 7.11 12.564 7.68667 12.564 8.42V8.7H8.83398C8.85398 9.3 9.01732 9.76333 9.32398 10.09C9.63732 10.41 10.0707 10.57 10.624 10.57C10.924 10.57 11.204 10.5233 11.464 10.43C11.7307 10.3367 11.9907 10.18 12.244 9.96L12.484 10.42C12.2707 10.6267 11.9973 10.79 11.664 10.91C11.3307 11.0233 10.9907 11.08 10.644 11.08ZM10.524 6.55C10.0173 6.55 9.62065 6.71 9.33398 7.03C9.05398 7.34333 8.89065 7.75 8.84398 8.25H12.014C12.0007 7.71667 11.8673 7.3 11.614 7C11.3607 6.7 10.9973 6.55 10.524 6.55ZM15.5888 11L13.5088 6.15H14.1888L15.8988 10.33L17.6388 6.15H18.2788L16.1988 11H15.5888ZM21.6881 11.08C20.9415 11.08 20.3515 10.86 19.9181 10.42C19.4915 9.97333 19.2781 9.36333 19.2781 8.59C19.2781 8.09 19.3748 7.65 19.5681 7.27C19.7615 6.89 20.0281 6.59333 20.3681 6.38C20.7148 6.16667 21.1115 6.06 21.5581 6.06C22.2048 6.06 22.7081 6.27 23.0681 6.69C23.4281 7.11 23.6081 7.68667 23.6081 8.42V8.7H19.8781C19.8981 9.3 20.0615 9.76333 20.3681 10.09C20.6815 10.41 21.1148 10.57 21.6681 10.57C21.9681 10.57 22.2481 10.5233 22.5081 10.43C22.7748 10.3367 23.0348 10.18 23.2881 9.96L23.5281 10.42C23.3148 10.6267 23.0415 10.79 22.7081 10.91C22.3748 11.0233 22.0348 11.08 21.6881 11.08ZM21.5681 6.55C21.0615 6.55 20.6648 6.71 20.3781 7.03C20.0981 7.34333 19.9348 7.75 19.8881 8.25H23.0581C23.0448 7.71667 22.9115 7.3 22.6581 7C22.4048 6.7 22.0415 6.55 21.5681 6.55ZM26.6616 11.08C26.2082 11.08 25.8582 10.9433 25.6116 10.67C25.3716 10.39 25.2516 9.99 25.2516 9.47V3.95H25.8616V9.4C25.8616 10.1667 26.1616 10.55 26.7616 10.55C26.9282 10.55 27.0816 10.53 27.2216 10.49L27.2016 11.02C27.0082 11.06 26.8282 11.08 26.6616 11.08ZM30.3843 11.08C29.931 11.08 29.5376 10.98 29.2043 10.78C28.871 10.5733 28.611 10.2833 28.4243 9.91C28.2443 9.53 28.1543 9.08333 28.1543 8.57C28.1543 8.06333 28.2443 7.62333 28.4243 7.25C28.611 6.87 28.871 6.57667 29.2043 6.37C29.5376 6.16333 29.931 6.06 30.3843 6.06C30.8443 6.06 31.241 6.16333 31.5743 6.37C31.9076 6.57667 32.1643 6.87 32.3443 7.25C32.531 7.62333 32.6243 8.06333 32.6243 8.57C32.6243 9.08333 32.531 9.53 32.3443 9.91C32.1643 10.2833 31.9076 10.5733 31.5743 10.78C31.241 10.98 30.8443 11.08 30.3843 11.08ZM30.3843 10.57C30.8776 10.57 31.271 10.3967 31.5643 10.05C31.8576 9.69667 32.0043 9.20333 32.0043 8.57C32.0043 7.93667 31.8576 7.44667 31.5643 7.1C31.271 6.75333 30.8776 6.58 30.3843 6.58C29.891 6.58 29.4976 6.75333 29.2043 7.1C28.9176 7.44667 28.7743 7.93667 28.7743 8.57C28.7743 9.20333 28.9176 9.69667 29.2043 10.05C29.4976 10.3967 29.891 10.57 30.3843 10.57ZM34.323 12.8V6.15H34.933V7.06C35.0797 6.75333 35.2997 6.51 35.593 6.33C35.893 6.15 36.2397 6.06 36.633 6.06C37.0664 6.06 37.443 6.16333 37.763 6.37C38.0897 6.57667 38.3397 6.86667 38.513 7.24C38.693 7.61333 38.783 8.05667 38.783 8.57C38.783 9.08333 38.693 9.53 38.513 9.91C38.3397 10.2833 38.0897 10.5733 37.763 10.78C37.443 10.98 37.0664 11.08 36.633 11.08C36.2397 11.08 35.893 10.9933 35.593 10.82C35.2997 10.6467 35.0797 10.4067 34.933 10.1V12.8H34.323ZM36.543 10.57C37.0364 10.57 37.4297 10.3967 37.723 10.05C38.0164 9.69667 38.163 9.20333 38.163 8.57C38.163 7.93667 38.0164 7.44667 37.723 7.1C37.4297 6.75333 37.0364 6.58 36.543 6.58C36.0497 6.58 35.6564 6.75333 35.363 7.1C35.0697 7.44667 34.923 7.93667 34.923 8.57C34.923 9.20333 35.0697 9.69667 35.363 10.05C35.6564 10.3967 36.0497 10.57 36.543 10.57ZM42.585 11.08C41.8383 11.08 41.2483 10.86 40.815 10.42C40.3883 9.97333 40.175 9.36333 40.175 8.59C40.175 8.09 40.2717 7.65 40.465 7.27C40.6583 6.89 40.925 6.59333 41.265 6.38C41.6117 6.16667 42.0083 6.06 42.455 6.06C43.1017 6.06 43.605 6.27 43.965 6.69C44.325 7.11 44.505 7.68667 44.505 8.42V8.7H40.775C40.795 9.3 40.9583 9.76333 41.265 10.09C41.5783 10.41 42.0117 10.57 42.565 10.57C42.865 10.57 43.145 10.5233 43.405 10.43C43.6717 10.3367 43.9317 10.18 44.185 9.96L44.425 10.42C44.2117 10.6267 43.9383 10.79 43.605 10.91C43.2717 11.0233 42.9317 11.08 42.585 11.08ZM42.465 6.55C41.9583 6.55 41.5617 6.71 41.275 7.03C40.995 7.34333 40.8317 7.75 40.785 8.25H43.955C43.9417 7.71667 43.8083 7.3 43.555 7C43.3017 6.7 42.9383 6.55 42.465 6.55ZM47.9984 11.08C47.5584 11.08 47.1784 10.98 46.8584 10.78C46.5384 10.5733 46.2884 10.2833 46.1084 9.91C45.9351 9.53 45.8484 9.08333 45.8484 8.57C45.8484 7.80333 46.0418 7.19333 46.4284 6.74C46.8151 6.28667 47.3384 6.06 47.9984 6.06C48.3851 6.06 48.7251 6.15 49.0184 6.33C49.3184 6.50333 49.5418 6.74333 49.6884 7.05V3.95H50.2984V11H49.6984V10.08C49.5518 10.3933 49.3284 10.64 49.0284 10.82C48.7351 10.9933 48.3918 11.08 47.9984 11.08ZM48.0784 10.57C48.5718 10.57 48.9651 10.3967 49.2584 10.05C49.5518 9.69667 49.6984 9.20333 49.6984 8.57C49.6984 7.93667 49.5518 7.44667 49.2584 7.1C48.9651 6.75333 48.5718 6.58 48.0784 6.58C47.5851 6.58 47.1918 6.75333 46.8984 7.1C46.6118 7.44667 46.4684 7.93667 46.4684 8.57C46.4684 9.20333 46.6118 9.69667 46.8984 10.05C47.1918 10.3967 47.5851 10.57 48.0784 10.57ZM56.7102 11.08C56.3835 11.08 56.0902 11.0167 55.8302 10.89C55.5768 10.7633 55.3735 10.59 55.2202 10.37C55.0735 10.15 55.0002 9.90333 55.0002 9.63C55.0002 9.27 55.0902 8.99 55.2702 8.79C55.4502 8.58333 55.7535 8.43667 56.1802 8.35C56.6068 8.26333 57.1935 8.22 57.9402 8.22H58.2502V7.86C58.2502 7.41333 58.1602 7.09 57.9802 6.89C57.8002 6.68333 57.5135 6.58 57.1202 6.58C56.8268 6.58 56.5435 6.62333 56.2702 6.71C56.0035 6.79667 55.7268 6.93333 55.4402 7.12L55.2002 6.65C55.4535 6.47 55.7535 6.32667 56.1002 6.22C56.4468 6.11333 56.7835 6.06 57.1102 6.06C57.6968 6.06 58.1302 6.21 58.4102 6.51C58.6968 6.81 58.8402 7.27 58.8402 7.89V11H58.2602V10.13C58.1268 10.43 57.9235 10.6633 57.6502 10.83C57.3835 10.9967 57.0702 11.08 56.7102 11.08ZM56.7902 10.59C57.0768 10.59 57.3268 10.5233 57.5402 10.39C57.7602 10.25 57.9335 10.06 58.0602 9.82C58.1868 9.58 58.2502 9.30667 58.2502 9V8.67H57.9502C57.3502 8.67 56.8802 8.69667 56.5402 8.75C56.2068 8.80333 55.9735 8.89667 55.8402 9.03C55.7068 9.16333 55.6402 9.34667 55.6402 9.58C55.6402 9.88 55.7435 10.1233 55.9502 10.31C56.1568 10.4967 56.4368 10.59 56.7902 10.59ZM60.8348 11V6.15H61.4348V7.02C61.5948 6.7 61.8248 6.46 62.1248 6.3C62.4248 6.14 62.7581 6.06 63.1248 6.06C64.2781 6.06 64.8548 6.68667 64.8548 7.94V11H64.2448V7.99C64.2448 7.51 64.1481 7.15667 63.9548 6.93C63.7614 6.70333 63.4548 6.59 63.0348 6.59C62.5548 6.59 62.1681 6.74 61.8748 7.04C61.5881 7.33333 61.4448 7.73 61.4448 8.23V11H60.8348ZM68.6805 11.08C68.2405 11.08 67.8605 10.98 67.5405 10.78C67.2205 10.5733 66.9705 10.2833 66.7905 9.91C66.6171 9.53 66.5305 9.08333 66.5305 8.57C66.5305 7.80333 66.7238 7.19333 67.1105 6.74C67.4971 6.28667 68.0205 6.06 68.6805 6.06C69.0671 6.06 69.4071 6.15 69.7005 6.33C70.0005 6.50333 70.2238 6.74333 70.3705 7.05V3.95H70.9805V11H70.3805V10.08C70.2338 10.3933 70.0105 10.64 69.7105 10.82C69.4171 10.9933 69.0738 11.08 68.6805 11.08ZM68.7605 10.57C69.2538 10.57 69.6471 10.3967 69.9405 10.05C70.2338 9.69667 70.3805 9.20333 70.3805 8.57C70.3805 7.93667 70.2338 7.44667 69.9405 7.1C69.6471 6.75333 69.2538 6.58 68.7605 6.58C68.2671 6.58 67.8738 6.75333 67.5805 7.1C67.2938 7.44667 67.1505 7.93667 67.1505 8.57C67.1505 9.20333 67.2938 9.69667 67.5805 10.05C67.8738 10.3967 68.2671 10.57 68.7605 10.57ZM75.9122 11V6.15H76.5122V7C76.8122 6.37333 77.3222 6.06 78.0422 6.06C78.8155 6.06 79.3055 6.39667 79.5122 7.07C79.6522 6.75667 79.8655 6.51 80.1522 6.33C80.4389 6.15 80.7722 6.06 81.1522 6.06C82.2255 6.06 82.7622 6.68667 82.7622 7.94V11H82.1522V7.99C82.1522 7.51 82.0655 7.15667 81.8922 6.93C81.7255 6.70333 81.4422 6.59 81.0422 6.59C80.6155 6.59 80.2755 6.74 80.0222 7.04C79.7689 7.33333 79.6422 7.73333 79.6422 8.24V11H79.0322V7.99C79.0322 7.51 78.9455 7.15667 78.7722 6.93C78.6055 6.70333 78.3255 6.59 77.9322 6.59C77.4989 6.59 77.1555 6.74 76.9022 7.04C76.6489 7.33333 76.5222 7.73333 76.5222 8.24V11H75.9122ZM86.259 11.08C85.9323 11.08 85.639 11.0167 85.379 10.89C85.1257 10.7633 84.9223 10.59 84.769 10.37C84.6223 10.15 84.549 9.90333 84.549 9.63C84.549 9.27 84.639 8.99 84.819 8.79C84.999 8.58333 85.3023 8.43667 85.729 8.35C86.1557 8.26333 86.7423 8.22 87.489 8.22H87.799V7.86C87.799 7.41333 87.709 7.09 87.529 6.89C87.349 6.68333 87.0623 6.58 86.669 6.58C86.3757 6.58 86.0923 6.62333 85.819 6.71C85.5523 6.79667 85.2757 6.93333 84.989 7.12L84.749 6.65C85.0023 6.47 85.3023 6.32667 85.649 6.22C85.9957 6.11333 86.3323 6.06 86.659 6.06C87.2457 6.06 87.679 6.21 87.959 6.51C88.2457 6.81 88.389 7.27 88.389 7.89V11H87.809V10.13C87.6757 10.43 87.4723 10.6633 87.199 10.83C86.9323 10.9967 86.619 11.08 86.259 11.08ZM86.339 10.59C86.6257 10.59 86.8757 10.5233 87.089 10.39C87.309 10.25 87.4823 10.06 87.609 9.82C87.7357 9.58 87.799 9.30667 87.799 9V8.67H87.499C86.899 8.67 86.429 8.69667 86.089 8.75C85.7557 8.80333 85.5223 8.89667 85.389 9.03C85.2557 9.16333 85.189 9.34667 85.189 9.58C85.189 9.88 85.2923 10.1233 85.499 10.31C85.7057 10.4967 85.9857 10.59 86.339 10.59ZM90.3836 11V6.15H90.9836V7.03C91.1236 6.72333 91.3269 6.49 91.5936 6.33C91.8603 6.17 92.2003 6.07667 92.6136 6.05L92.8636 6.03L92.9236 6.56L92.4936 6.61C92.0203 6.65 91.6536 6.80667 91.3936 7.08C91.1336 7.34667 91.0036 7.70667 91.0036 8.16V11H90.3836ZM94.2016 11V3.95H94.8116V8.35H94.8316L97.2216 6.15H98.0316L95.4816 8.49L98.2716 11H97.4616L94.8316 8.67H94.8116V11H94.2016ZM101.419 11.08C100.672 11.08 100.082 10.86 99.6486 10.42C99.2219 9.97333 99.0086 9.36333 99.0086 8.59C99.0086 8.09 99.1053 7.65 99.2986 7.27C99.4919 6.89 99.7586 6.59333 100.099 6.38C100.445 6.16667 100.842 6.06 101.289 6.06C101.935 6.06 102.439 6.27 102.799 6.69C103.159 7.11 103.339 7.68667 103.339 8.42V8.7H99.6086C99.6286 9.3 99.7919 9.76333 100.099 10.09C100.412 10.41 100.845 10.57 101.399 10.57C101.699 10.57 101.979 10.5233 102.239 10.43C102.505 10.3367 102.765 10.18 103.019 9.96L103.259 10.42C103.045 10.6267 102.772 10.79 102.439 10.91C102.105 11.0233 101.765 11.08 101.419 11.08ZM101.299 6.55C100.792 6.55 100.395 6.71 100.109 7.03C99.8286 7.34333 99.6653 7.75 99.6186 8.25H102.789C102.775 7.71667 102.642 7.3 102.389 7C102.135 6.7 101.772 6.55 101.299 6.55ZM106.812 11.08C106.272 11.08 105.865 10.9333 105.592 10.64C105.325 10.3467 105.192 9.92667 105.192 9.38V6.64H104.232V6.15H105.192V4.65H105.802V6.15H107.372V6.64H105.802V9.3C105.802 9.70667 105.885 10.0167 106.052 10.23C106.219 10.4433 106.495 10.55 106.882 10.55C106.995 10.55 107.105 10.5367 107.212 10.51C107.319 10.4833 107.412 10.4533 107.492 10.42L107.612 10.9C107.539 10.9467 107.422 10.9867 107.262 11.02C107.102 11.06 106.952 11.08 106.812 11.08ZM110.793 11.08C110.046 11.08 109.456 10.86 109.023 10.42C108.596 9.97333 108.383 9.36333 108.383 8.59C108.383 8.09 108.479 7.65 108.673 7.27C108.866 6.89 109.133 6.59333 109.473 6.38C109.819 6.16667 110.216 6.06 110.663 6.06C111.309 6.06 111.813 6.27 112.173 6.69C112.533 7.11 112.713 7.68667 112.713 8.42V8.7H108.983C109.003 9.3 109.166 9.76333 109.473 10.09C109.786 10.41 110.219 10.57 110.773 10.57C111.073 10.57 111.353 10.5233 111.613 10.43C111.879 10.3367 112.139 10.18 112.393 9.96L112.633 10.42C112.419 10.6267 112.146 10.79 111.813 10.91C111.479 11.0233 111.139 11.08 110.793 11.08ZM110.673 6.55C110.166 6.55 109.769 6.71 109.483 7.03C109.203 7.34333 109.039 7.75 108.993 8.25H112.163C112.149 7.71667 112.016 7.3 111.763 7C111.509 6.7 111.146 6.55 110.673 6.55ZM116.206 11.08C115.766 11.08 115.386 10.98 115.066 10.78C114.746 10.5733 114.496 10.2833 114.316 9.91C114.143 9.53 114.056 9.08333 114.056 8.57C114.056 7.80333 114.25 7.19333 114.636 6.74C115.023 6.28667 115.546 6.06 116.206 6.06C116.593 6.06 116.933 6.15 117.226 6.33C117.526 6.50333 117.75 6.74333 117.896 7.05V3.95H118.506V11H117.906V10.08C117.76 10.3933 117.536 10.64 117.236 10.82C116.943 10.9933 116.6 11.08 116.206 11.08ZM116.286 10.57C116.78 10.57 117.173 10.3967 117.466 10.05C117.76 9.69667 117.906 9.20333 117.906 8.57C117.906 7.93667 117.76 7.44667 117.466 7.1C117.173 6.75333 116.78 6.58 116.286 6.58C115.793 6.58 115.4 6.75333 115.106 7.1C114.82 7.44667 114.676 7.93667 114.676 8.57C114.676 9.20333 114.82 9.69667 115.106 10.05C115.4 10.3967 115.793 10.57 116.286 10.57ZM125.728 11.08C125.335 11.08 124.988 10.9933 124.688 10.82C124.395 10.64 124.175 10.3933 124.028 10.08V11H123.418V3.95H124.028V7.05C124.175 6.74333 124.395 6.50333 124.688 6.33C124.988 6.15 125.335 6.06 125.728 6.06C126.381 6.06 126.901 6.28667 127.288 6.74C127.681 7.19333 127.878 7.80333 127.878 8.57C127.878 9.08333 127.788 9.53 127.608 9.91C127.435 10.2833 127.185 10.5733 126.858 10.78C126.538 10.98 126.161 11.08 125.728 11.08ZM125.638 10.57C126.131 10.57 126.525 10.3967 126.818 10.05C127.111 9.69667 127.258 9.20333 127.258 8.57C127.258 7.93667 127.111 7.44667 126.818 7.1C126.525 6.75333 126.131 6.58 125.638 6.58C125.145 6.58 124.751 6.75333 124.458 7.1C124.165 7.44667 124.018 7.93667 124.018 8.57C124.018 9.20333 124.165 9.69667 124.458 10.05C124.751 10.3967 125.145 10.57 125.638 10.57ZM130.131 12.8L130.931 10.98L128.871 6.15H129.551L131.261 10.33L132.991 6.15H133.651L130.791 12.8H130.131Z" fill="#FAFAFA"/>
<path d="M160.796 11.8293C160.304 11.8293 159.847 11.7441 159.424 11.5739C159.002 11.3973 158.63 11.1545 158.308 10.8456C157.993 10.5303 157.744 10.1677 157.561 9.75779C157.384 9.3416 157.296 8.89388 157.296 8.41464C157.296 7.93539 157.384 7.49082 157.561 7.08094C157.744 6.66475 157.993 6.30216 158.308 5.99318C158.63 5.67788 159.002 5.43511 159.424 5.26485C159.847 5.08828 160.304 5 160.796 5C161.288 5 161.745 5.08828 162.167 5.26485C162.596 5.43511 162.968 5.67788 163.283 5.99318C163.605 6.30216 163.854 6.66475 164.031 7.08094C164.207 7.49082 164.295 7.93539 164.295 8.41464C164.295 8.89388 164.207 9.3416 164.031 9.75779C163.854 10.1677 163.605 10.5303 163.283 10.8456C162.968 11.1545 162.596 11.3973 162.167 11.5739C161.745 11.7441 161.288 11.8293 160.796 11.8293ZM160.796 10.5712C161.098 10.5712 161.376 10.5176 161.628 10.4104C161.88 10.2969 162.101 10.1456 162.29 9.95642C162.479 9.76094 162.628 9.53078 162.735 9.26593C162.842 9.00108 162.896 8.71732 162.896 8.41464C162.896 8.10565 162.842 7.82188 162.735 7.56334C162.628 7.29849 162.479 7.07148 162.29 6.88231C162.101 6.68682 161.88 6.53548 161.628 6.42828C161.376 6.31478 161.098 6.25802 160.796 6.25802C160.499 6.25802 160.225 6.31478 159.973 6.42828C159.721 6.53548 159.5 6.68682 159.311 6.88231C159.121 7.07148 158.973 7.29849 158.866 7.56334C158.759 7.82188 158.705 8.10249 158.705 8.40518C158.705 8.71417 158.759 9.00108 158.866 9.26593C158.973 9.53078 159.121 9.76094 159.311 9.95642C159.5 10.1456 159.721 10.2969 159.973 10.4104C160.225 10.5176 160.499 10.5712 160.796 10.5712Z" fill="#FAFAFA"/>
<path d="M165.246 11.7252V5.10405H168.566C169.001 5.10405 169.382 5.19233 169.71 5.36889C170.045 5.54546 170.306 5.79139 170.495 6.10668C170.685 6.41567 170.779 6.77511 170.779 7.18499C170.779 7.57595 170.685 7.92593 170.495 8.23492C170.306 8.54391 170.045 8.78668 169.71 8.96325C169.376 9.13981 168.995 9.2281 168.566 9.2281H166.617V11.7252H165.246ZM166.617 8.09304H168.415C168.711 8.09304 168.947 8.01106 169.124 7.84711C169.307 7.68315 169.398 7.4656 169.398 7.19445C169.398 6.91699 169.307 6.69628 169.124 6.53233C168.947 6.36838 168.711 6.2864 168.415 6.2864H166.617V8.09304Z" fill="#FAFAFA"/>
<path d="M174.928 11.8293C174.437 11.8293 173.979 11.7441 173.557 11.5739C173.134 11.3973 172.762 11.1545 172.441 10.8456C172.126 10.5303 171.876 10.1677 171.694 9.75779C171.517 9.3416 171.429 8.89388 171.429 8.41464C171.429 7.93539 171.517 7.49082 171.694 7.08094C171.876 6.66475 172.126 6.30216 172.441 5.99318C172.762 5.67788 173.134 5.43511 173.557 5.26485C173.979 5.08828 174.437 5 174.928 5C175.42 5 175.878 5.08828 176.3 5.26485C176.729 5.43511 177.101 5.67788 177.416 5.99318C177.738 6.30216 177.987 6.66475 178.163 7.08094C178.34 7.49082 178.428 7.93539 178.428 8.41464C178.428 8.89388 178.34 9.3416 178.163 9.75779C177.987 10.1677 177.738 10.5303 177.416 10.8456C177.101 11.1545 176.729 11.3973 176.3 11.5739C175.878 11.7441 175.42 11.8293 174.928 11.8293ZM174.928 10.5712C175.231 10.5712 175.509 10.5176 175.761 10.4104C176.013 10.2969 176.234 10.1456 176.423 9.95642C176.612 9.76094 176.76 9.53078 176.868 9.26593C176.975 9.00108 177.028 8.71732 177.028 8.41464C177.028 8.10565 176.975 7.82188 176.868 7.56334C176.76 7.29849 176.612 7.07148 176.423 6.88231C176.234 6.68682 176.013 6.53548 175.761 6.42828C175.509 6.31478 175.231 6.25802 174.928 6.25802C174.632 6.25802 174.358 6.31478 174.106 6.42828C173.853 6.53548 173.633 6.68682 173.443 6.88231C173.254 7.07148 173.106 7.29849 172.999 7.56334C172.892 7.82188 172.838 8.10249 172.838 8.40518C172.838 8.71417 172.892 9.00108 172.999 9.26593C173.106 9.53078 173.254 9.76094 173.443 9.95642C173.633 10.1456 173.853 10.2969 174.106 10.4104C174.358 10.5176 174.632 10.5712 174.928 10.5712Z" fill="#FAFAFA"/>
<path d="M179.379 11.7252V5.10405H182.699C183.134 5.10405 183.515 5.19233 183.843 5.36889C184.177 5.54546 184.439 5.79139 184.628 6.10668C184.817 6.41567 184.912 6.77511 184.912 7.18499C184.912 7.57595 184.817 7.92593 184.628 8.23492C184.439 8.54391 184.177 8.78668 183.843 8.96325C183.509 9.13981 183.127 9.2281 182.699 9.2281H180.75V11.7252H179.379ZM180.75 8.09304H182.547C182.844 8.09304 183.08 8.01106 183.257 7.84711C183.44 7.68315 183.531 7.4656 183.531 7.19445C183.531 6.91699 183.44 6.69628 183.257 6.53233C183.08 6.36838 182.844 6.2864 182.547 6.2864H180.75V8.09304Z" fill="#FAFAFA"/>
<path d="M187.909 11.7252V5.10405H188.59L191.059 10.3159L193.518 5.10405H194.199V11.7252H193.764V5.52024L191.059 11.2523L188.344 5.53915V11.7252H187.909Z" fill="#FAFAFA"/>
<path d="M195.77 11.7252V5.10405H200.348V5.51078H196.205V8.17816H198.91V8.58489H196.205V11.3185H200.386V11.7252H195.77Z" fill="#FAFAFA"/>
<path d="M201.895 11.3185H203.541C203.963 11.3185 204.354 11.246 204.714 11.1009C205.079 10.9559 205.395 10.7541 205.66 10.4956C205.931 10.2307 206.142 9.92174 206.293 9.56861C206.445 9.21548 206.52 8.83082 206.52 8.41464C206.52 7.99845 206.445 7.61379 206.293 7.26066C206.142 6.90753 205.931 6.60169 205.66 6.34315C205.395 6.07831 205.079 5.87337 204.714 5.72833C204.354 5.58329 203.963 5.51078 203.541 5.51078H201.895V11.3185ZM201.46 11.7252V5.10405H203.484C204.007 5.10405 204.48 5.18918 204.903 5.35944C205.332 5.52339 205.701 5.75355 206.01 6.04993C206.318 6.34631 206.555 6.69628 206.719 7.09986C206.883 7.50344 206.965 7.94169 206.965 8.41464C206.965 8.88758 206.883 9.32584 206.719 9.72941C206.555 10.133 206.318 10.483 206.01 10.7793C205.701 11.0757 205.332 11.309 204.903 11.4793C204.48 11.6432 204.007 11.7252 203.484 11.7252H201.46Z" fill="#FAFAFA"/>
<path d="M208.203 11.7252V5.10405H208.638V11.7252H208.203Z" fill="#FAFAFA"/>
<path d="M209.498 11.7252L212.26 5.10405H212.799L215.552 11.7252H215.079L214.161 9.48348H210.879L209.952 11.7252H209.498ZM211.04 9.09567H214L212.525 5.51078L211.04 9.09567Z" fill="#FAFAFA"/>
<path d="M146.62 1.59497C146.116 1.59497 144.112 1.80786 143.319 3.00945C143.086 3.35946 146.473 3.18626 145.879 3.58678C145.162 4.0703 143.477 4.85693 141.936 4.69094C141.727 4.66929 141.49 4.6729 141.312 4.80641C141.167 4.91466 141.102 5.08786 141.078 5.26467C141.016 5.75902 141.205 6.28944 141.366 6.7441C141.583 7.35391 141.85 7.93846 142.06 8.55188C142.077 8.6024 142.094 8.65292 142.094 8.70704C142.094 8.76117 142.073 8.81529 142.032 8.84416C141.964 8.88746 141.878 8.84777 141.809 8.80447C141.538 8.63127 141.298 8.40755 141.044 8.20187C140.903 8.08641 140.759 7.97816 140.601 7.88795C140.478 7.81578 140.261 7.66062 140.124 7.75805C140.049 7.81217 140.032 7.92403 140.028 8.02145C139.99 8.76478 140.093 9.51532 140.323 10.2189C140.512 10.8035 140.783 11.3556 141.116 11.8607C141.452 12.3731 141.854 12.835 142.303 13.2427C142.753 13.6505 143.254 14.0005 143.786 14.2783C144.318 14.5562 144.887 14.7619 145.471 14.8809C145.852 14.9567 146.24 15 146.627 15C150.148 15 153 12.0015 153 8.2993C153 4.59712 150.141 1.59497 146.62 1.59497ZM146.62 11.9004C144.726 11.9004 143.192 10.2875 143.192 8.29569C143.192 6.30388 144.726 4.69094 146.62 4.69094C148.515 4.69094 150.049 6.30388 150.049 8.29569C150.049 10.2875 148.515 11.9004 146.62 11.9004Z" fill="#FAFAFA"/>
<path d="M140.351 3.03112C140.697 3.03112 140.982 2.73524 140.982 2.36718C140.982 2.00274 140.701 1.70325 140.351 1.70325C140.001 1.70325 139.723 2.00274 139.723 2.36718C139.723 2.73163 140.004 3.03112 140.351 3.03112Z" fill="#FAFAFA"/>
<path d="M140.457 5.3621C140.457 5.05178 140.217 4.79919 139.922 4.79919C139.626 4.79919 139.386 5.05178 139.386 5.3621C139.386 5.67241 139.626 5.925 139.922 5.925C140.217 5.925 140.457 5.67241 140.457 5.3621Z" fill="#FAFAFA"/>
<path d="M142.712 0.775798C142.915 0.775798 143.083 0.602597 143.083 0.386095C143.083 0.169593 142.915 0 142.712 0C142.51 0 142.341 0.173201 142.341 0.389703C142.341 0.606205 142.506 0.775798 142.712 0.775798Z" fill="#FAFAFA"/>
<path d="M139.03 7.28163C139.174 7.28163 139.291 7.15885 139.291 7.00739C139.291 6.85593 139.174 6.73315 139.03 6.73315C138.886 6.73315 138.769 6.85593 138.769 7.00739C138.769 7.15885 138.886 7.28163 139.03 7.28163Z" fill="#FAFAFA"/>
<path d="M138.446 2.64478C138.199 2.64478 138 2.85406 138 3.11386C138 3.37366 138.199 3.58295 138.446 3.58295C138.693 3.58295 138.892 3.37366 138.892 3.11386C138.892 2.85406 138.69 2.64478 138.446 2.64478Z" fill="#FAFAFA"/>
<path d="M142.712 3.20047C142.858 3.20047 142.977 3.07607 142.977 2.92262C142.977 2.76917 142.858 2.64478 142.712 2.64478C142.566 2.64478 142.448 2.76917 142.448 2.92262C142.448 3.07607 142.566 3.20047 142.712 3.20047Z" fill="#FAFAFA"/>
<path d="M148.093 8.92312C148.423 8.08539 148.045 7.12496 147.248 6.77795C146.451 6.43093 145.538 6.82875 145.208 7.66649C144.878 8.50423 145.256 9.46466 146.053 9.81167C146.85 10.1587 147.763 9.76086 148.093 8.92312Z" fill="#FAFAFA"/>
</svg>
