<svg width="78" height="15" viewBox="0 0 78 15" fill="none" xmlns="http://www.w3.org/2000/svg">
<path d="M22.7957 11.8293C22.3038 11.8293 21.8466 11.7441 21.4241 11.5739C21.0016 11.3973 20.6296 11.1545 20.308 10.8456C19.9927 10.5303 19.7436 10.1677 19.5607 9.75779C19.3842 9.3416 19.2959 8.89388 19.2959 8.41464C19.2959 7.93539 19.3842 7.49082 19.5607 7.08094C19.7436 6.66475 19.9927 6.30216 20.308 5.99318C20.6296 5.67788 21.0016 5.43511 21.4241 5.26485C21.8466 5.08828 22.3038 5 22.7957 5C23.2875 5 23.7447 5.08828 24.1672 5.26485C24.596 5.43511 24.968 5.67788 25.2833 5.99318C25.6049 6.30216 25.854 6.66475 26.0306 7.08094C26.2071 7.49082 26.2954 7.93539 26.2954 8.41464C26.2954 8.89388 26.2071 9.3416 26.0306 9.75779C25.854 10.1677 25.6049 10.5303 25.2833 10.8456C24.968 11.1545 24.596 11.3973 24.1672 11.5739C23.7447 11.7441 23.2875 11.8293 22.7957 11.8293ZM22.7957 10.5712C23.0983 10.5712 23.3758 10.5176 23.628 10.4104C23.8803 10.2969 24.101 10.1456 24.2902 9.95642C24.4793 9.76094 24.6275 9.53078 24.7347 9.26593C24.8419 9.00108 24.8955 8.71732 24.8955 8.41464C24.8955 8.10565 24.8419 7.82188 24.7347 7.56334C24.6275 7.29849 24.4793 7.07148 24.2902 6.88231C24.101 6.68682 23.8803 6.53548 23.628 6.42828C23.3758 6.31478 23.0983 6.25802 22.7957 6.25802C22.4993 6.25802 22.225 6.31478 21.9727 6.42828C21.7205 6.53548 21.4998 6.68682 21.3106 6.88231C21.1215 7.07148 20.9733 7.29849 20.8661 7.56334C20.7589 7.82188 20.7053 8.10249 20.7053 8.40518C20.7053 8.71417 20.7589 9.00108 20.8661 9.26593C20.9733 9.53078 21.1215 9.76094 21.3106 9.95642C21.4998 10.1456 21.7205 10.2969 21.9727 10.4104C22.225 10.5176 22.4993 10.5712 22.7957 10.5712Z" fill="#FAFAFA"/>
<path d="M27.2458 11.7252V5.10405H30.5659C31.001 5.10405 31.3825 5.19233 31.7104 5.36889C32.0446 5.54546 32.3063 5.79139 32.4955 6.10668C32.6846 6.41567 32.7792 6.77511 32.7792 7.18499C32.7792 7.57595 32.6846 7.92593 32.4955 8.23492C32.3063 8.54391 32.0446 8.78668 31.7104 8.96325C31.3762 9.13981 30.9947 9.2281 30.5659 9.2281H28.6173V11.7252H27.2458ZM28.6173 8.09304H30.4145C30.7109 8.09304 30.9474 8.01106 31.1239 7.84711C31.3068 7.68315 31.3982 7.4656 31.3982 7.19445C31.3982 6.91699 31.3068 6.69628 31.1239 6.53233C30.9474 6.36838 30.7109 6.2864 30.4145 6.2864H28.6173V8.09304Z" fill="#FAFAFA"/>
<path d="M36.9285 11.8293C36.4366 11.8293 35.9794 11.7441 35.5569 11.5739C35.1345 11.3973 34.7624 11.1545 34.4408 10.8456C34.1255 10.5303 33.8764 10.1677 33.6936 9.75779C33.517 9.3416 33.4287 8.89388 33.4287 8.41464C33.4287 7.93539 33.517 7.49082 33.6936 7.08094C33.8764 6.66475 34.1255 6.30216 34.4408 5.99318C34.7624 5.67788 35.1345 5.43511 35.5569 5.26485C35.9794 5.08828 36.4366 5 36.9285 5C37.4203 5 37.8775 5.08828 38.3 5.26485C38.7288 5.43511 39.1009 5.67788 39.4161 5.99318C39.7377 6.30216 39.9868 6.66475 40.1634 7.08094C40.34 7.49082 40.4282 7.93539 40.4282 8.41464C40.4282 8.89388 40.34 9.3416 40.1634 9.75779C39.9868 10.1677 39.7377 10.5303 39.4161 10.8456C39.1009 11.1545 38.7288 11.3973 38.3 11.5739C37.8775 11.7441 37.4203 11.8293 36.9285 11.8293ZM36.9285 10.5712C37.2312 10.5712 37.5086 10.5176 37.7609 10.4104C38.0131 10.2969 38.2338 10.1456 38.423 9.95642C38.6121 9.76094 38.7603 9.53078 38.8675 9.26593C38.9747 9.00108 39.0283 8.71732 39.0283 8.41464C39.0283 8.10565 38.9747 7.82188 38.8675 7.56334C38.7603 7.29849 38.6121 7.07148 38.423 6.88231C38.2338 6.68682 38.0131 6.53548 37.7609 6.42828C37.5086 6.31478 37.2312 6.25802 36.9285 6.25802C36.6321 6.25802 36.3578 6.31478 36.1056 6.42828C35.8533 6.53548 35.6326 6.68682 35.4434 6.88231C35.2543 7.07148 35.1061 7.29849 34.9989 7.56334C34.8917 7.82188 34.8381 8.10249 34.8381 8.40518C34.8381 8.71417 34.8917 9.00108 34.9989 9.26593C35.1061 9.53078 35.2543 9.76094 35.4434 9.95642C35.6326 10.1456 35.8533 10.2969 36.1056 10.4104C36.3578 10.5176 36.6321 10.5712 36.9285 10.5712Z" fill="#FAFAFA"/>
<path d="M41.3786 11.7252V5.10405H44.6987C45.1338 5.10405 45.5153 5.19233 45.8432 5.36889C46.1774 5.54546 46.4391 5.79139 46.6283 6.10668C46.8175 6.41567 46.912 6.77511 46.912 7.18499C46.912 7.57595 46.8175 7.92593 46.6283 8.23492C46.4391 8.54391 46.1774 8.78668 45.8432 8.96325C45.509 9.13981 45.1275 9.2281 44.6987 9.2281H42.7502V11.7252H41.3786ZM42.7502 8.09304H44.5473C44.8437 8.09304 45.0802 8.01106 45.2568 7.84711C45.4396 7.68315 45.5311 7.4656 45.5311 7.19445C45.5311 6.91699 45.4396 6.69628 45.2568 6.53233C45.0802 6.36838 44.8437 6.2864 44.5473 6.2864H42.7502V8.09304Z" fill="#FAFAFA"/>
<path d="M49.9089 11.7252V5.10405H50.59L53.0587 10.3159L55.518 5.10405H56.1991V11.7252H55.764V5.52024L53.0587 11.2523L50.344 5.53915V11.7252H49.9089Z" fill="#FAFAFA"/>
<path d="M57.7697 11.7252V5.10405H62.3478V5.51078H58.2048V8.17816H60.9101V8.58489H58.2048V11.3185H62.3856V11.7252H57.7697Z" fill="#FAFAFA"/>
<path d="M63.8949 11.3185H65.5408C65.9632 11.3185 66.3542 11.246 66.7136 11.1009C67.0794 10.9559 67.3947 10.7541 67.6595 10.4956C67.9307 10.2307 68.1419 9.92174 68.2933 9.56861C68.4446 9.21548 68.5203 8.83082 68.5203 8.41464C68.5203 7.99845 68.4446 7.61379 68.2933 7.26066C68.1419 6.90753 67.9307 6.60169 67.6595 6.34315C67.3947 6.07831 67.0794 5.87337 66.7136 5.72833C66.3542 5.58329 65.9632 5.51078 65.5408 5.51078H63.8949V11.3185ZM63.4598 11.7252V5.10405H65.484C66.0074 5.10405 66.4803 5.18918 66.9028 5.35944C67.3316 5.52339 67.7005 5.75355 68.0095 6.04993C68.3185 6.34631 68.555 6.69628 68.7189 7.09986C68.8829 7.50344 68.9648 7.94169 68.9648 8.41464C68.9648 8.88758 68.8829 9.32584 68.7189 9.72941C68.555 10.133 68.3185 10.483 68.0095 10.7793C67.7005 11.0757 67.3316 11.309 66.9028 11.4793C66.4803 11.6432 66.0074 11.7252 65.484 11.7252H63.4598Z" fill="#FAFAFA"/>
<path d="M70.2029 11.7252V5.10405H70.638V11.7252H70.2029Z" fill="#FAFAFA"/>
<path d="M71.498 11.7252L74.2599 5.10405H74.7991L77.5516 11.7252H77.0787L76.1612 9.48348H72.879L71.952 11.7252H71.498ZM73.0398 9.09567H76.0004L74.5248 5.51078L73.0398 9.09567Z" fill="#FAFAFA"/>
<path d="M8.62042 1.59497C8.11596 1.59497 6.11185 1.80786 5.31913 3.00945C5.08578 3.35946 8.47286 3.18626 7.87917 3.58678C7.16195 4.0703 5.47699 4.85693 3.93616 4.69094C3.72683 4.66929 3.49004 4.6729 3.31159 4.80641C3.16746 4.91466 3.10226 5.08786 3.07824 5.26467C3.01646 5.75902 3.20521 6.28944 3.3665 6.7441C3.58269 7.35391 3.85037 7.93846 4.0597 8.55188C4.07686 8.6024 4.09402 8.65292 4.09402 8.70704C4.09402 8.76117 4.07343 8.81529 4.03225 8.84416C3.96361 8.88746 3.87782 8.84777 3.80919 8.80447C3.53808 8.63127 3.29786 8.40755 3.04392 8.20187C2.90322 8.08641 2.75909 7.97816 2.60123 7.88795C2.47769 7.81578 2.26149 7.66062 2.12422 7.75805C2.04873 7.81217 2.03157 7.92403 2.02814 8.02145C1.99039 8.76478 2.09334 9.51532 2.32326 10.2189C2.51201 10.8035 2.78311 11.3556 3.11598 11.8607C3.45229 12.3731 3.8538 12.835 4.30335 13.2427C4.7529 13.6505 5.25393 14.0005 5.78584 14.2783C6.31775 14.5562 6.88741 14.7619 7.4708 14.8809C7.85172 14.9567 8.2395 15 8.62728 15C12.1482 15 14.9999 12.0015 14.9999 8.2993C14.9999 4.59712 12.1413 1.59497 8.62042 1.59497ZM8.62042 11.9004C6.72613 11.9004 5.19216 10.2875 5.19216 8.29569C5.19216 6.30388 6.72613 4.69094 8.62042 4.69094C10.5147 4.69094 12.0487 6.30388 12.0487 8.29569C12.0487 10.2875 10.5147 11.9004 8.62042 11.9004Z" fill="#FAFAFA"/>
<path d="M2.35061 3.03112C2.69719 3.03112 2.982 2.73524 2.982 2.36718C2.982 2.00274 2.70062 1.70325 2.35061 1.70325C2.0006 1.70325 1.72266 2.00274 1.72266 2.36718C1.72266 2.73163 2.00404 3.03112 2.35061 3.03112Z" fill="#FAFAFA"/>
<path d="M2.4569 5.3621C2.4569 5.05178 2.21669 4.79919 1.92156 4.79919C1.62644 4.79919 1.38623 5.05178 1.38623 5.3621C1.38623 5.67241 1.62644 5.925 1.92156 5.925C2.21669 5.925 2.4569 5.67241 2.4569 5.3621Z" fill="#FAFAFA"/>
<path d="M4.71219 0.775798C4.9148 0.775798 5.08307 0.602597 5.08307 0.386095C5.08307 0.169593 4.9148 0 4.71219 0C4.50958 0 4.34131 0.173201 4.34131 0.389703C4.34131 0.606205 4.50614 0.775798 4.71219 0.775798Z" fill="#FAFAFA"/>
<path d="M1.03001 7.28163C1.17414 7.28163 1.29098 7.15885 1.29098 7.00739C1.29098 6.85593 1.17414 6.73315 1.03001 6.73315C0.885882 6.73315 0.769043 6.85593 0.769043 7.00739C0.769043 7.15885 0.885882 7.28163 1.03001 7.28163Z" fill="#FAFAFA"/>
<path d="M0.446128 2.64478C0.199042 2.64478 0 2.85406 0 3.11386C0 3.37366 0.199042 3.58295 0.446128 3.58295C0.693214 3.58295 0.892255 3.37366 0.892255 3.11386C0.892255 2.85406 0.689782 2.64478 0.446128 2.64478Z" fill="#FAFAFA"/>
<path d="M4.7122 3.20047C4.85825 3.20047 4.97665 3.07607 4.97665 2.92262C4.97665 2.76917 4.85825 2.64478 4.7122 2.64478C4.56615 2.64478 4.44775 2.76917 4.44775 2.92262C4.44775 3.07607 4.56615 3.20047 4.7122 3.20047Z" fill="#FAFAFA"/>
<path d="M10.0931 8.92312C10.4231 8.08539 10.0448 7.12496 9.24807 6.77795C8.45134 6.43093 7.53793 6.82875 7.20791 7.66649C6.87789 8.50423 7.25623 9.46466 8.05295 9.81167C8.84968 10.1587 9.76309 9.76086 10.0931 8.92312Z" fill="#FAFAFA"/>
</svg>
