<svg width="79" height="25" viewBox="0 0 79 25" fill="none" xmlns="http://www.w3.org/2000/svg">
<path d="M4.89016 21.2571C4.78326 21.254 4.67483 21.2449 4.56946 21.2266C4.24501 21.1687 3.94204 21.0249 3.69221 20.8099C3.44237 20.595 3.25483 20.317 3.14917 20.0048L0.0948079 10.8417C-0.225901 9.87959 0.293342 8.8411 1.25547 8.52039C2.21759 8.19968 3.25608 8.71893 3.57679 9.68105L5.56212 15.6371L15.0612 3.6334C15.6889 2.83622 16.845 2.7003 17.6421 3.32797C18.4393 3.95564 18.5753 5.11172 17.9476 5.90891L6.34099 20.5699C6.16461 20.7841 5.94313 20.9568 5.69234 21.0756C5.44156 21.1943 5.16766 21.2563 4.89016 21.2571Z" fill="#21D63E"/>
<path d="M10.8691 11.321C11.0967 11.1316 15.4461 5.94223 15.4461 5.94223C15.4461 5.94223 15.8095 5.55585 15.5011 5.21682C15.2109 4.9068 14.8322 5.10992 14.6504 5.3115C14.4687 5.51309 10.5438 10.1405 10.3819 10.3695C10.3041 10.4961 10.2618 10.6413 10.2594 10.7899C10.257 10.9385 10.2946 11.085 10.3682 11.2141C10.5117 11.4462 10.7118 11.4584 10.8691 11.321Z" fill="#96ECA4"/>
<path d="M15.9512 4.78748C16.2296 4.78748 16.4552 4.56185 16.4552 4.28351C16.4552 4.00518 16.2296 3.77954 15.9512 3.77954C15.6729 3.77954 15.4473 4.00518 15.4473 4.28351C15.4473 4.56185 15.6729 4.78748 15.9512 4.78748Z" fill="#96ECA4"/>
<path d="M1.33371 12.3253C1.43603 12.3238 1.41465 11.7511 1.68191 11.2028C1.86975 10.8149 2.11258 10.6194 2.11105 10.4026C2.10952 10.1857 1.81783 9.1289 1.59944 9.19915C1.29553 9.29536 0.907628 9.68632 0.820578 10.2957C0.684659 11.2547 1.14587 12.3283 1.33371 12.3253Z" fill="#96ECA4"/>
<path d="M25.1074 12.063V0H33.3719V2.07039H27.6398V4.89366H32.9955V6.98116H27.6398V9.99265H33.3719V12.063H25.1074Z" fill="white"/>
<path d="M34.2012 12.063L37.7431 7.73403L34.4237 3.66169H37.4351L39.2147 5.97163L40.9942 3.66169H44.0057L40.6862 7.73403L44.2452 12.063H41.2166L39.2147 9.53066L37.2127 12.063H34.2012Z" fill="white"/>
<path d="M45.1451 15.143V3.66169H47.6775V4.91077C47.9056 4.4773 48.2536 4.13508 48.7213 3.88413C49.2003 3.62176 49.7365 3.49058 50.3297 3.49058C51.0597 3.49058 51.6985 3.66739 52.2461 4.02101C52.805 4.37463 53.2385 4.87655 53.5465 5.52675C53.8545 6.17696 54.0085 6.95265 54.0085 7.85381C54.0085 8.75497 53.8545 9.53636 53.5465 10.198C53.2385 10.8482 52.805 11.3558 52.2461 11.7208C51.6985 12.0744 51.0597 12.2513 50.3297 12.2513C49.7707 12.2513 49.2574 12.1315 48.7897 11.8919C48.3334 11.6524 47.9798 11.333 47.7288 10.9337V15.143H45.1451ZM49.5597 10.3177C50.1072 10.3177 50.5521 10.1181 50.8943 9.71887C51.2365 9.31963 51.4076 8.69794 51.4076 7.85381C51.4076 7.02109 51.2365 6.41081 50.8943 6.02296C50.5521 5.62372 50.1072 5.42409 49.5597 5.42409C49.0007 5.42409 48.5501 5.62372 48.2079 6.02296C47.8657 6.41081 47.6946 7.02109 47.6946 7.85381C47.6946 8.69794 47.8657 9.31963 48.2079 9.71887C48.5501 10.1181 49.0007 10.3177 49.5597 10.3177Z" fill="white"/>
<path d="M60.123 12.2513C59.1306 12.2513 58.275 12.0744 57.5564 11.7208C56.8491 11.3558 56.3016 10.8482 55.9138 10.198C55.5373 9.53636 55.3491 8.76068 55.3491 7.87092C55.3491 7.00398 55.5316 6.2454 55.8966 5.5952C56.2731 4.93358 56.7807 4.42026 57.4195 4.05523C58.0697 3.6788 58.8169 3.49058 59.661 3.49058C60.8816 3.49058 61.8512 3.87842 62.5698 4.65411C63.2885 5.41839 63.6478 6.45644 63.6478 7.76826V8.41846H57.813C57.9043 9.08008 58.1439 9.56488 58.5317 9.87287C58.9309 10.1695 59.4785 10.3177 60.1743 10.3177C60.6306 10.3177 61.0926 10.2493 61.5603 10.1124C62.028 9.97554 62.45 9.7645 62.8265 9.47933L63.5109 11.2075C63.0888 11.5269 62.5698 11.7836 61.9538 11.9775C61.3493 12.16 60.739 12.2513 60.123 12.2513ZM59.7637 5.20165C59.2161 5.20165 58.7712 5.36705 58.429 5.69786C58.0982 6.02867 57.8929 6.49066 57.813 7.08383H61.509C61.4405 5.82904 60.8587 5.20165 59.7637 5.20165Z" fill="white"/>
<path d="M65.3217 12.063V3.66169H67.8541V5.1161C68.2533 4.13509 69.1089 3.59325 70.4207 3.49058L71.1736 3.43925L71.3276 5.61231L69.8731 5.7663C68.5955 5.89178 67.9567 6.54199 67.9567 7.71692V12.063H65.3217Z" fill="white"/>
<path d="M77.1693 12.2513C74.808 12.2513 73.6273 11.1048 73.6273 8.81201V5.5952H72.036V3.66169H73.6273V1.19775H76.2111V3.66169H78.6921V5.5952H76.2111V8.70934C76.2111 9.18844 76.3194 9.54777 76.5362 9.78732C76.7643 10.0269 77.1236 10.1466 77.6141 10.1466C77.7624 10.1466 77.9164 10.1295 78.0761 10.0953C78.2472 10.0611 78.4297 10.0155 78.6237 9.95842L79.0001 11.8406C78.7605 11.9661 78.4754 12.063 78.1446 12.1315C77.8138 12.2113 77.4887 12.2513 77.1693 12.2513Z" fill="white"/>
<path d="M25.1074 24.049V17.3839H27.7451C28.4636 17.3839 29.0119 17.5572 29.3901 17.9039C29.7745 18.2505 29.9668 18.7453 29.9668 19.3882C29.9668 20.0247 29.7745 20.5195 29.3901 20.8724C29.0119 21.2191 28.4636 21.3924 27.7451 21.3924H25.8826V24.049H25.1074ZM25.8826 20.7401H27.6505C28.6842 20.7401 29.201 20.2894 29.201 19.3882C29.201 18.4806 28.6842 18.0268 27.6505 18.0268H25.8826V20.7401Z" fill="white"/>
<path d="M32.3947 24.1341C31.9283 24.1341 31.5753 23.9986 31.3358 23.7275C31.1026 23.4502 30.986 23.05 30.986 22.5269V17.3839H31.7518V22.4702C31.7518 23.1446 32.0197 23.4817 32.5554 23.4817C32.713 23.4817 32.8548 23.4628 32.9808 23.425L32.9619 24.0679C32.7665 24.112 32.5775 24.1341 32.3947 24.1341Z" fill="white"/>
<path d="M35.8077 24.1341C35.0829 24.1341 34.5094 23.9229 34.0871 23.5007C33.6648 23.0721 33.4537 22.4922 33.4537 21.7611C33.4537 21.2884 33.5482 20.8724 33.7373 20.5132C33.9264 20.1476 34.1848 19.8672 34.5125 19.6718C34.8466 19.4701 35.231 19.3693 35.6659 19.3693C36.2899 19.3693 36.7783 19.5709 37.1313 19.9743C37.4842 20.3714 37.6607 20.9197 37.6607 21.6193V21.9124H34.2005C34.2258 22.4355 34.377 22.8357 34.6543 23.113C34.9317 23.3841 35.3161 23.5196 35.8077 23.5196C36.085 23.5196 36.3498 23.4786 36.6019 23.3967C36.854 23.3084 37.0935 23.1666 37.3204 22.9712L37.5851 23.5101C37.3771 23.7055 37.1124 23.8599 36.7909 23.9734C36.4695 24.0805 36.1418 24.1341 35.8077 24.1341ZM35.6848 19.9365C35.2499 19.9365 34.9064 20.072 34.6543 20.343C34.4022 20.614 34.2541 20.9701 34.21 21.4113H36.9989C36.98 20.9449 36.8571 20.5825 36.6302 20.3241C36.4096 20.0657 36.0945 19.9365 35.6848 19.9365Z" fill="white"/>
<path d="M40.0655 24.049L38.0896 19.4543H38.9216L40.4437 23.1792L41.9847 19.4543H42.7693L40.784 24.049H40.0655Z" fill="white"/>
<path d="M43.4845 18.3104V17.4501H44.4299V18.3104H43.4845ZM43.5791 24.049V19.4543H44.3448V24.049H43.5791Z" fill="white"/>
<path d="M45.7764 24.049V19.4543H46.5232V20.239C46.6745 19.9491 46.8888 19.7317 47.1661 19.5867C47.4434 19.4417 47.7554 19.3693 48.1021 19.3693C49.1924 19.3693 49.7376 19.9743 49.7376 21.1844V24.049H48.9718V21.2317C48.9718 20.8031 48.8867 20.4911 48.7166 20.2957C48.5527 20.0941 48.288 19.9932 47.9224 19.9932C47.5002 19.9932 47.163 20.1256 46.9109 20.3903C46.6651 20.6487 46.5421 20.9953 46.5421 21.4302V24.049H45.7764Z" fill="white"/>
<path d="M54.1371 24.1341C53.4816 24.1341 52.9207 23.9954 52.4543 23.7181C51.9879 23.4408 51.6286 23.0469 51.3765 22.5363C51.1307 22.0258 51.0078 21.4176 51.0078 20.7117C51.0078 20.0121 51.1307 19.4071 51.3765 18.8966C51.6286 18.386 51.9879 17.9921 52.4543 17.7148C52.9207 17.4375 53.4816 17.2988 54.1371 17.2988C54.5972 17.2988 55.0195 17.3713 55.4039 17.5163C55.7947 17.6612 56.1256 17.8724 56.3966 18.1497L56.0941 18.7831C55.8042 18.5121 55.5016 18.3167 55.1865 18.197C54.8777 18.0709 54.5342 18.0079 54.156 18.0079C53.406 18.0079 52.8325 18.2442 52.4354 18.7169C52.0383 19.1896 51.8398 19.8546 51.8398 20.7117C51.8398 21.5752 52.0383 22.2433 52.4354 22.716C52.8325 23.1887 53.406 23.425 54.156 23.425C54.5342 23.425 54.8777 23.3651 55.1865 23.2454C55.5016 23.1193 55.8042 22.9208 56.0941 22.6498L56.3966 23.2832C56.1256 23.5542 55.7947 23.7654 55.4039 23.9166C55.0195 24.0616 54.5972 24.1341 54.1371 24.1341Z" fill="white"/>
<path d="M58.9194 24.1341C58.453 24.1341 58.1001 23.9986 57.8606 23.7275C57.6274 23.4502 57.5108 23.05 57.5108 22.5269V17.3839H58.2766V22.4702C58.2766 23.1446 58.5444 23.4817 59.0801 23.4817C59.2377 23.4817 59.3795 23.4628 59.5056 23.425L59.4867 24.0679C59.2913 24.112 59.1022 24.1341 58.9194 24.1341Z" fill="white"/>
<path d="M61.7547 24.1341C61.4395 24.1341 61.1559 24.0742 60.9038 23.9544C60.658 23.8284 60.4626 23.6582 60.3177 23.4439C60.1727 23.2296 60.1002 22.9901 60.1002 22.7254C60.1002 22.3914 60.1853 22.1267 60.3555 21.9313C60.532 21.7359 60.8187 21.5972 61.2158 21.5153C61.6192 21.4271 62.1675 21.383 62.8608 21.383H63.1633V21.0899C63.1633 20.6991 63.0814 20.4186 62.9175 20.2485C62.7599 20.072 62.5047 19.9838 62.1517 19.9838C61.8744 19.9838 61.6066 20.0247 61.3481 20.1067C61.0897 20.1823 60.825 20.3084 60.554 20.4848L60.2893 19.927C60.5288 19.7569 60.8187 19.6214 61.1591 19.5205C61.5057 19.4197 61.8366 19.3693 62.1517 19.3693C62.7442 19.3693 63.1822 19.5142 63.4658 19.8041C63.7558 20.0941 63.9007 20.5447 63.9007 21.1561V24.049H63.1822V23.2548C63.0625 23.5259 62.8765 23.7402 62.6244 23.8977C62.3786 24.0553 62.0887 24.1341 61.7547 24.1341ZM61.8776 23.5574C62.2557 23.5574 62.5646 23.4282 62.8041 23.1698C63.0436 22.9051 63.1633 22.571 63.1633 22.1676V21.884H62.8702C62.3597 21.884 61.9564 21.9092 61.6601 21.9597C61.3702 22.0038 61.1654 22.0857 61.0456 22.2055C60.9322 22.3189 60.8754 22.4765 60.8754 22.6782C60.8754 22.9366 60.9637 23.1477 61.1402 23.3116C61.3229 23.4754 61.5687 23.5574 61.8776 23.5574Z" fill="white"/>
<path d="M65.2269 18.3104V17.4501H66.1723V18.3104H65.2269ZM65.3214 24.049V19.4543H66.0872V24.049H65.3214Z" fill="white"/>
<path d="M67.5376 24.049V19.4543H68.2845V20.2296C68.4232 19.9523 68.6154 19.7411 68.8612 19.5962C69.107 19.4449 69.3938 19.3693 69.7215 19.3693C70.44 19.3693 70.9001 19.6812 71.1018 20.3052C71.2405 20.0153 71.4453 19.7884 71.7163 19.6245C71.9873 19.4543 72.2993 19.3693 72.6522 19.3693C73.6733 19.3693 74.1838 19.9743 74.1838 21.1844V24.049H73.418V21.2222C73.418 20.8 73.3424 20.4911 73.1911 20.2957C73.0462 20.0941 72.8035 19.9932 72.4632 19.9932C72.0913 19.9932 71.7951 20.1256 71.5745 20.3903C71.3539 20.655 71.2436 21.0079 71.2436 21.4491V24.049H70.4778V21.2222C70.4778 20.8 70.4022 20.4911 70.2509 20.2957C70.106 20.0941 69.8633 19.9932 69.523 19.9932C69.1448 19.9932 68.8454 20.1256 68.6248 20.3903C68.4106 20.655 68.3034 21.0079 68.3034 21.4491V24.049H67.5376Z" fill="white"/>
<path d="M77.166 24.1341C76.8068 24.1341 76.4664 24.0836 76.145 23.9828C75.8236 23.882 75.5588 23.7402 75.3508 23.5574L75.5967 23.0185C75.8235 23.2013 76.0725 23.3368 76.3435 23.425C76.6208 23.507 76.9013 23.5479 77.1849 23.5479C77.5442 23.5479 77.8152 23.4817 77.998 23.3494C78.1807 23.217 78.2721 23.0374 78.2721 22.8105C78.2721 22.634 78.2123 22.4954 78.0925 22.3945C77.9728 22.2874 77.7837 22.2055 77.5253 22.1487L76.665 21.9597C75.8834 21.7895 75.4927 21.3861 75.4927 20.7495C75.4927 20.3336 75.6565 19.9995 75.9843 19.7474C76.3183 19.4953 76.7532 19.3693 77.2889 19.3693C77.6041 19.3693 77.9034 19.4197 78.187 19.5205C78.477 19.6151 78.7165 19.7569 78.9056 19.9459L78.6503 20.4848C78.4675 20.3147 78.2532 20.1854 78.0074 20.0972C77.7679 20.0027 77.5284 19.9554 77.2889 19.9554C76.936 19.9554 76.6681 20.0247 76.4853 20.1634C76.3026 20.302 76.2112 20.4848 76.2112 20.7117C76.2112 21.0647 76.4444 21.2916 76.9108 21.3924L77.7711 21.572C78.1744 21.6603 78.4801 21.8021 78.6881 21.9975C78.8961 22.1865 79.0001 22.445 79.0001 22.7727C79.0001 23.195 78.8331 23.529 78.499 23.7748C78.165 24.0143 77.7207 24.1341 77.166 24.1341Z" fill="white"/>
</svg>
