
<svg width="20" height="20" viewBox="0 0 20 20" fill="none" xmlns="http://www.w3.org/2000/svg">
    <path d="M5.26157 19.8714C5.14655 19.8681 5.02988 19.8583 4.9165 19.8386C4.56742 19.7763 4.24144 19.6215 3.97263 19.3903C3.70381 19.1591 3.50203 18.8599 3.38835 18.524L0.102009 8.66498C-0.243058 7.62979 0.315621 6.51243 1.35082 6.16736C2.38602 5.8223 3.50337 6.38097 3.84844 7.41617L5.98456 13.8245L16.2051 0.909211C16.8804 0.0514756 18.1243 -0.0947666 18.9821 0.580577C19.8398 1.25592 19.986 2.4998 19.3107 3.35754L6.82258 19.132C6.6328 19.3625 6.3945 19.5483 6.12467 19.6761C5.85485 19.8039 5.56014 19.8706 5.26157 19.8714Z" fill="#21D63E"/>
  </svg>
