<svg width="62" height="16" viewBox="0 0 62 16" fill="none" xmlns="http://www.w3.org/2000/svg">
<mask id="mask0_374_12" style="mask-type:alpha" maskUnits="userSpaceOnUse" x="0" y="2" width="17" height="13">
<rect x="0.331543" y="2.0271" width="16.2178" height="12.1633" rx="1.01361" fill="#D9D9D9"/>
</mask>
<g mask="url(#mask0_374_12)">
<path fill-rule="evenodd" clip-rule="evenodd" d="M0.331543 2.0271V14.1904H16.5493V2.0271H0.331543Z" fill="#2E42A5"/>
<mask id="mask1_374_12" style="mask-type:alpha" maskUnits="userSpaceOnUse" x="0" y="2" width="17" height="13">
<path fill-rule="evenodd" clip-rule="evenodd" d="M0.331543 2.0271V14.1904H16.5493V2.0271H0.331543Z" fill="white"/>
</mask>
<g mask="url(#mask1_374_12)">
<mask id="mask2_374_12" style="mask-type:alpha" maskUnits="userSpaceOnUse" x="0" y="2" width="17" height="13">
<path d="M0.331543 2.0271H16.5493V14.1904H0.331543V2.0271Z" fill="white"/>
</mask>
<g mask="url(#mask2_374_12)">
<path d="M-1.47363 13.3214L2.09529 14.8312L16.6305 3.66829L18.5133 1.42517L14.697 0.920898L8.7684 5.73099L3.99632 8.97252L-1.47363 13.3214Z" fill="white"/>
<path d="M-0.986328 14.379L0.832597 15.2548L17.8364 1.2168H15.2837L-0.985821 14.3785L-0.986328 14.379Z" fill="#F50100"/>
<path d="M18.3555 13.3214L14.7866 14.8312L0.251436 3.66829L-1.63135 1.42517L2.1849 0.920898L8.11351 5.73099L12.8856 8.97252L18.3555 13.3214Z" fill="white"/>
<path d="M18.2337 14.0807L16.4153 14.9565L9.17507 8.94575L7.02824 8.27474L-1.81299 1.43286H0.740299L9.57595 8.11256L11.923 8.91737L18.2337 14.0807Z" fill="#F50100"/>
<mask id="mask3_374_12" style="mask-type:alpha" maskUnits="userSpaceOnUse" x="-1" y="1" width="19" height="15">
<path fill-rule="evenodd" clip-rule="evenodd" d="M10.356 1.01343H6.52661V6.08148H-0.666992V10.1359H6.52661V15.204H10.356V10.1359H17.578V6.08148H10.356V1.01343Z" fill="white"/>
</mask>
<g mask="url(#mask3_374_12)">
<path fill-rule="evenodd" clip-rule="evenodd" d="M10.356 1.01343H6.52661V6.08148H-0.666992V10.1359H6.52661V15.204H10.356V10.1359H17.578V6.08148H10.356V1.01343Z" fill="#F50100"/>
<path d="M6.52606 1.01361V0H5.51245V1.01361H6.52606ZM10.3555 1.01361H11.3691V0H10.3555V1.01361ZM6.52606 6.08167V7.09528H7.53967V6.08167H6.52606ZM-0.667541 6.08167V5.06806H-1.68115V6.08167H-0.667541ZM-0.667541 10.1361H-1.68115V11.1497H-0.667541V10.1361ZM6.52606 10.1361H7.53967V9.1225H6.52606V10.1361ZM6.52606 15.2042H5.51245V16.2178H6.52606V15.2042ZM10.3555 15.2042V16.2178H11.3691V15.2042H10.3555ZM10.3555 10.1361V9.1225H9.34187V10.1361H10.3555ZM17.5775 10.1361V11.1497H18.5911V10.1361H17.5775ZM17.5775 6.08167H18.5911V5.06806H17.5775V6.08167ZM10.3555 6.08167H9.34187V7.09528H10.3555V6.08167ZM6.52606 2.02722H10.3555V0H6.52606V2.02722ZM7.53967 6.08167V1.01361H5.51245V6.08167H7.53967ZM-0.667541 7.09528H6.52606V5.06806H-0.667541V7.09528ZM0.346071 10.1361V6.08167H-1.68115V10.1361H0.346071ZM6.52606 9.1225H-0.667541V11.1497H6.52606V9.1225ZM7.53967 15.2042V10.1361H5.51245V15.2042H7.53967ZM10.3555 14.1906H6.52606V16.2178H10.3555V14.1906ZM9.34187 10.1361V15.2042H11.3691V10.1361H9.34187ZM17.5775 9.1225H10.3555V11.1497H17.5775V9.1225ZM16.5639 6.08167V10.1361H18.5911V6.08167H16.5639ZM10.3555 7.09528H17.5775V5.06806H10.3555V7.09528ZM9.34187 1.01361V6.08167H11.3691V1.01361H9.34187Z" fill="white"/>
</g>
</g>
</g>
</g>
<path d="M21.4414 6V5.52698H22.5294V1.90501L21.6712 2.4456L21.4347 2.0334L22.6848 1.23603H23.0835V5.52698H24.1039V6H21.4414ZM26.6825 6.06082C26.1374 6.06082 25.723 5.85134 25.4392 5.43238C25.1554 5.01342 25.0135 4.4075 25.0135 3.61463C25.0135 2.81726 25.1554 2.21135 25.4392 1.79689C25.723 1.38244 26.1374 1.17521 26.6825 1.17521C27.2321 1.17521 27.6466 1.38244 27.9259 1.79689C28.2097 2.20684 28.3516 2.8105 28.3516 3.60788C28.3516 4.40525 28.2075 5.01342 27.9192 5.43238C27.6353 5.85134 27.2231 6.06082 26.6825 6.06082ZM26.6825 5.58104C27.061 5.58104 27.3403 5.42112 27.5205 5.10126C27.7052 4.78141 27.7975 4.28362 27.7975 3.60788C27.7975 2.93214 27.7074 2.43884 27.5272 2.128C27.347 1.81266 27.0655 1.65499 26.6825 1.65499C26.3041 1.65499 26.0226 1.81266 25.8379 2.128C25.6577 2.44335 25.5676 2.93664 25.5676 3.60788C25.5676 4.28362 25.6577 4.78141 25.8379 5.10126C26.0226 5.42112 26.3041 5.58104 26.6825 5.58104ZM30.7344 6.06082C30.1893 6.06082 29.7748 5.85134 29.491 5.43238C29.2072 5.01342 29.0653 4.4075 29.0653 3.61463C29.0653 2.81726 29.2072 2.21135 29.491 1.79689C29.7748 1.38244 30.1893 1.17521 30.7344 1.17521C31.284 1.17521 31.6984 1.38244 31.9777 1.79689C32.2615 2.20684 32.4034 2.8105 32.4034 3.60788C32.4034 4.40525 32.2593 5.01342 31.971 5.43238C31.6871 5.85134 31.2749 6.06082 30.7344 6.06082ZM30.7344 5.58104C31.1128 5.58104 31.3921 5.42112 31.5723 5.10126C31.757 4.78141 31.8493 4.28362 31.8493 3.60788C31.8493 2.93214 31.7592 2.43884 31.579 2.128C31.3988 1.81266 31.1173 1.65499 30.7344 1.65499C30.3559 1.65499 30.0744 1.81266 29.8897 2.128C29.7095 2.44335 29.6194 2.93664 29.6194 3.60788C29.6194 4.28362 29.7095 4.78141 29.8897 5.10126C30.0744 5.42112 30.3559 5.58104 30.7344 5.58104ZM34.6916 6.16894L34.3064 5.94594L37.1107 1.06709L37.4891 1.29009L34.6916 6.16894ZM34.2861 4.09441C33.9257 4.09441 33.6442 3.96602 33.4414 3.70924C33.2387 3.45246 33.1373 3.09431 33.1373 2.63481C33.1373 2.17531 33.2387 1.81942 33.4414 1.56714C33.6442 1.31036 33.9257 1.18197 34.2861 1.18197C34.642 1.18197 34.9213 1.31036 35.124 1.56714C35.3313 1.81942 35.4349 2.17531 35.4349 2.63481C35.4349 3.09431 35.3313 3.45246 35.124 3.70924C34.9213 3.96602 34.642 4.09441 34.2861 4.09441ZM34.2861 3.69572C34.4933 3.69572 34.6578 3.60788 34.7794 3.43218C34.901 3.25199 34.9619 2.98619 34.9619 2.63481C34.9619 2.28342 34.901 2.01989 34.7794 1.84419C34.6578 1.6685 34.4933 1.58065 34.2861 1.58065C34.0744 1.58065 33.9077 1.6685 33.7861 1.84419C33.6689 2.01989 33.6104 2.28342 33.6104 2.63481C33.6104 2.98619 33.6689 3.25199 33.7861 3.43218C33.9077 3.60788 34.0744 3.69572 34.2861 3.69572ZM37.5162 6.06082C37.1603 6.06082 36.8787 5.93243 36.6715 5.67564C36.4688 5.41886 36.3674 5.06072 36.3674 4.60122C36.3674 4.14622 36.4688 3.79033 36.6715 3.53355C36.8787 3.27676 37.1603 3.14837 37.5162 3.14837C37.8765 3.14837 38.1581 3.27676 38.3608 3.53355C38.5636 3.79033 38.6649 4.14622 38.6649 4.60122C38.6649 5.06072 38.5636 5.41886 38.3608 5.67564C38.1581 5.93243 37.8765 6.06082 37.5162 6.06082ZM37.5162 5.66213C37.7279 5.66213 37.8923 5.57428 38.0094 5.39859C38.1311 5.21839 38.1919 4.9526 38.1919 4.60122C38.1919 4.24983 38.1311 3.98629 38.0094 3.8106C37.8923 3.63491 37.7279 3.54706 37.5162 3.54706C37.3089 3.54706 37.1445 3.63491 37.0229 3.8106C36.9057 3.98629 36.8472 4.24983 36.8472 4.60122C36.8472 4.95711 36.9057 5.2229 37.0229 5.39859C37.1445 5.57428 37.3089 5.66213 37.5162 5.66213ZM42.9053 6.06082C42.5314 6.06082 42.1936 6.01351 41.8917 5.91891C41.5899 5.8198 41.3286 5.6779 41.1079 5.49319L41.3038 5.04721C41.5336 5.2229 41.7746 5.35354 42.0269 5.43913C42.2792 5.52473 42.572 5.56753 42.9053 5.56753C43.3108 5.56753 43.6104 5.49319 43.8041 5.34453C44.0023 5.19136 44.1014 4.99089 44.1014 4.74312C44.1014 4.5449 44.0293 4.38723 43.8852 4.2701C43.7455 4.15297 43.509 4.06062 43.1756 3.99305L42.4729 3.85114C42.0494 3.76104 41.7318 3.61463 41.5201 3.41191C41.3128 3.20468 41.2092 2.92988 41.2092 2.58751C41.2092 2.3037 41.2813 2.05592 41.4255 1.84419C41.5741 1.63246 41.7791 1.46803 42.0404 1.3509C42.3017 1.23377 42.6035 1.17521 42.9459 1.17521C43.2657 1.17521 43.5631 1.22702 43.8379 1.33063C44.1127 1.42974 44.3447 1.5739 44.5339 1.7631L44.3379 2.19558C44.1352 2.01088 43.9212 1.87798 43.696 1.79689C43.4707 1.7113 43.2184 1.6685 42.9391 1.6685C42.5832 1.6685 42.2994 1.75184 42.0877 1.91852C41.876 2.0807 41.7701 2.29694 41.7701 2.56724C41.7701 2.78347 41.8354 2.95466 41.9661 3.0808C42.1012 3.20694 42.3197 3.29929 42.6215 3.35785L43.3243 3.50652C43.7793 3.60112 44.1149 3.74528 44.3312 3.93899C44.5519 4.1282 44.6623 4.38723 44.6623 4.71609C44.6623 4.98188 44.5902 5.21614 44.446 5.41886C44.3064 5.62159 44.1037 5.77926 43.8379 5.89188C43.5766 6.0045 43.2657 6.06082 42.9053 6.06082ZM46.9276 6.06082C46.4095 6.06082 45.9996 5.9099 45.6977 5.60807C45.3959 5.30173 45.245 4.88728 45.245 4.36471C45.245 4.02684 45.3126 3.72951 45.4477 3.47273C45.5829 3.21144 45.7676 3.01097 46.0018 2.87132C46.2406 2.72716 46.5154 2.65508 46.8262 2.65508C47.2722 2.65508 47.6213 2.79924 47.8736 3.08756C48.1259 3.37137 48.252 3.7633 48.252 4.26335V4.47283H45.7788C45.7968 4.84674 45.905 5.1328 46.1032 5.33102C46.3014 5.52473 46.5762 5.62159 46.9276 5.62159C47.1258 5.62159 47.315 5.5923 47.4952 5.53374C47.6754 5.47067 47.8466 5.36931 48.0088 5.22966L48.198 5.61483C48.0493 5.75448 47.8601 5.86485 47.6304 5.94594C47.4006 6.02252 47.1663 6.06082 46.9276 6.06082ZM46.8397 3.06053C46.5289 3.06053 46.2834 3.15738 46.1032 3.3511C45.923 3.54481 45.8171 3.79934 45.7856 4.11468H47.779C47.7655 3.78132 47.6777 3.52228 47.5155 3.33758C47.3578 3.15288 47.1326 3.06053 46.8397 3.06053ZM50.4362 6.06082C50.1074 6.06082 49.8235 5.99099 49.5848 5.85134C49.346 5.70718 49.1613 5.50671 49.0307 5.24993C48.9045 4.98864 48.8415 4.68456 48.8415 4.33768C48.8415 3.8151 48.9834 3.40515 49.2672 3.10783C49.551 2.806 49.9407 2.65508 50.4362 2.65508C50.6389 2.65508 50.8394 2.69112 51.0376 2.7632C51.2358 2.83528 51.4003 2.93664 51.5309 3.06728L51.3417 3.46597C51.2111 3.33983 51.0669 3.24748 50.9092 3.18892C50.7561 3.13035 50.6097 3.10107 50.47 3.10107C50.1276 3.10107 49.8641 3.20919 49.6794 3.42543C49.4947 3.63716 49.4023 3.94349 49.4023 4.34443C49.4023 4.73636 49.4947 5.04721 49.6794 5.27696C49.8641 5.5022 50.1276 5.61483 50.47 5.61483C50.6097 5.61483 50.7561 5.58555 50.9092 5.52698C51.0669 5.46842 51.2111 5.37381 51.3417 5.24317L51.5309 5.64186C51.4003 5.7725 51.2336 5.87611 51.0309 5.9527C50.8326 6.02478 50.6344 6.06082 50.4362 6.06082ZM53.3344 6.06082C52.546 6.06082 52.1519 5.62609 52.1519 4.75664V2.7159H52.6992V4.74988C52.6992 5.0427 52.7578 5.25894 52.8749 5.39859C52.9965 5.53824 53.1857 5.60807 53.4425 5.60807C53.7218 5.60807 53.9493 5.51572 54.125 5.33102C54.3007 5.14181 54.3886 4.89178 54.3886 4.58094V2.7159H54.9359V6H54.4021V5.44589C54.2985 5.64411 54.152 5.79728 53.9628 5.9054C53.7781 6.00901 53.5687 6.06082 53.3344 6.06082ZM55.96 6V2.7159H56.4938V3.30379C56.6695 2.90736 57.0299 2.68887 57.575 2.64832L57.771 2.62805L57.8115 3.10107L57.4669 3.14162C57.156 3.16865 56.9195 3.26775 56.7573 3.43894C56.5952 3.60562 56.5141 3.83538 56.5141 4.1282V6H55.96ZM59.8221 6.06082C59.304 6.06082 58.8941 5.9099 58.5923 5.60807C58.2904 5.30173 58.1395 4.88728 58.1395 4.36471C58.1395 4.02684 58.2071 3.72951 58.3422 3.47273C58.4774 3.21144 58.6621 3.01097 58.8963 2.87132C59.1351 2.72716 59.4099 2.65508 59.7207 2.65508C60.1667 2.65508 60.5159 2.79924 60.7681 3.08756C61.0204 3.37137 61.1466 3.7633 61.1466 4.26335V4.47283H58.6733C58.6914 4.84674 58.7995 5.1328 58.9977 5.33102C59.1959 5.52473 59.4707 5.62159 59.8221 5.62159C60.0203 5.62159 60.2095 5.5923 60.3897 5.53374C60.5699 5.47067 60.7411 5.36931 60.9033 5.22966L61.0925 5.61483C60.9438 5.75448 60.7546 5.86485 60.5249 5.94594C60.2951 6.02252 60.0609 6.06082 59.8221 6.06082ZM59.7343 3.06053C59.4234 3.06053 59.1779 3.15738 58.9977 3.3511C58.8175 3.54481 58.7116 3.79934 58.6801 4.11468H60.6735C60.66 3.78132 60.5722 3.52228 60.41 3.33758C60.2523 3.15288 60.0271 3.06053 59.7343 3.06053ZM23.07 14.0608C22.4438 14.0608 21.9685 13.8964 21.6442 13.5675C21.3198 13.2342 21.1576 12.7499 21.1576 12.1147V9.23603H21.7117V12.0877C21.7117 13.0742 22.1645 13.5675 23.07 13.5675C23.9665 13.5675 24.4147 13.0742 24.4147 12.0877V9.23603H24.9688V12.1147C24.9688 12.7499 24.8066 13.2342 24.4823 13.5675C24.1624 13.8964 23.6917 14.0608 23.07 14.0608ZM26.1077 14V9.23603H26.6618V11.3984H26.6753L28.9863 9.23603H29.6959L27.2091 11.5538L29.8445 14H29.1147L26.6753 11.7565H26.6618V14H26.1077ZM33.3505 14L31.6814 9.23603H32.2626L33.6073 13.1891L34.9858 9.23603H35.4318L36.7968 13.2229L38.1686 9.23603H38.7227L37.0536 14H36.5603L35.2021 10.0807L33.8303 14H33.3505ZM40.5133 14.0608C39.9953 14.0608 39.5853 13.9099 39.2835 13.6081C38.9816 13.3017 38.8307 12.8873 38.8307 12.3647C38.8307 12.0268 38.8983 11.7295 39.0335 11.4727C39.1686 11.2114 39.3533 11.011 39.5876 10.8713C39.8263 10.7272 40.1011 10.6551 40.412 10.6551C40.858 10.6551 41.2071 10.7992 41.4594 11.0876C41.7116 11.3714 41.8378 11.7633 41.8378 12.2633V12.4728H39.3646C39.3826 12.8467 39.4907 13.1328 39.6889 13.331C39.8871 13.5247 40.1619 13.6216 40.5133 13.6216C40.7115 13.6216 40.9008 13.5923 41.081 13.5337C41.2611 13.4707 41.4323 13.3693 41.5945 13.2297L41.7837 13.6148C41.6351 13.7545 41.4459 13.8649 41.2161 13.9459C40.9863 14.0225 40.7521 14.0608 40.5133 14.0608ZM40.4255 11.0605C40.1146 11.0605 39.8691 11.1574 39.6889 11.3511C39.5087 11.5448 39.4029 11.7993 39.3713 12.1147H41.3648C41.3512 11.7813 41.2634 11.5223 41.1012 11.3376C40.9435 11.1529 40.7183 11.0605 40.4255 11.0605ZM44.2922 14.0608C44.031 14.0608 43.8012 14.0023 43.603 13.8851C43.4093 13.768 43.2629 13.6081 43.1638 13.4053V14H42.6299V9.23603H43.1773V11.2835C43.2719 11.0898 43.4183 10.9366 43.6165 10.824C43.8147 10.7114 44.04 10.6551 44.2922 10.6551C44.5851 10.6551 44.8396 10.7249 45.0558 10.8646C45.2766 10.9997 45.4455 11.1957 45.5626 11.4525C45.6843 11.7047 45.7451 12.0066 45.7451 12.3579C45.7451 12.7048 45.6843 13.0067 45.5626 13.2634C45.4455 13.5157 45.2766 13.7117 45.0558 13.8513C44.8396 13.991 44.5851 14.0608 44.2922 14.0608ZM44.1774 13.6216C44.4837 13.6216 44.7292 13.5135 44.9139 13.2972C45.0986 13.0765 45.191 12.7634 45.191 12.3579C45.191 11.948 45.0986 11.6349 44.9139 11.4187C44.7292 11.2024 44.4837 11.0943 44.1774 11.0943C43.871 11.0943 43.6255 11.2024 43.4408 11.4187C43.2561 11.6349 43.1638 11.948 43.1638 12.3579C43.1638 12.7634 43.2561 13.0765 43.4408 13.2972C43.6255 13.5135 43.871 13.6216 44.1774 13.6216ZM47.6778 14.0608C47.421 14.0608 47.1777 14.0248 46.948 13.9527C46.7182 13.8806 46.529 13.7793 46.3803 13.6486L46.556 13.2634C46.7182 13.3941 46.8962 13.4909 47.0899 13.554C47.2881 13.6126 47.4886 13.6419 47.6913 13.6419C47.9481 13.6419 48.1418 13.5946 48.2724 13.5C48.4031 13.4053 48.4684 13.277 48.4684 13.1148C48.4684 12.9886 48.4256 12.8895 48.34 12.8175C48.2544 12.7409 48.1192 12.6823 47.9345 12.6418L47.3196 12.5066C46.761 12.385 46.4817 12.0967 46.4817 11.6417C46.4817 11.3443 46.5988 11.1056 46.8331 10.9254C47.0719 10.7452 47.3827 10.6551 47.7656 10.6551C47.9909 10.6551 48.2048 10.6911 48.4076 10.7632C48.6148 10.8308 48.786 10.9321 48.9211 11.0673L48.7387 11.4525C48.608 11.3308 48.4549 11.2385 48.2792 11.1754C48.108 11.1078 47.9368 11.074 47.7656 11.074C47.5133 11.074 47.3219 11.1236 47.1912 11.2227C47.0606 11.3218 46.9953 11.4525 46.9953 11.6146C46.9953 11.8669 47.1619 12.0291 47.4953 12.1012L48.1102 12.2296C48.3986 12.2926 48.617 12.394 48.7657 12.5336C48.9144 12.6688 48.9887 12.8535 48.9887 13.0877C48.9887 13.3896 48.8693 13.6283 48.6306 13.804C48.3918 13.9752 48.0742 14.0608 47.6778 14.0608ZM49.7553 9.89825V9.28333H50.431V9.89825H49.7553ZM49.8229 14V10.7159H50.3702V14H49.8229ZM52.7111 14.0608C52.3237 14.0608 52.0331 13.9595 51.8394 13.7567C51.6457 13.5495 51.5489 13.2522 51.5489 12.8648V11.1416H50.9069V10.7159H51.5489V9.70904H52.0962V10.7159H53.1369V11.1416H52.0962V12.8107C52.0962 13.0675 52.1503 13.2634 52.2584 13.3986C52.3665 13.5292 52.5422 13.5946 52.7855 13.5946C52.8575 13.5946 52.9296 13.5855 53.0017 13.5675C53.0738 13.5495 53.1391 13.5315 53.1977 13.5135L53.2923 13.9324C53.2337 13.964 53.1481 13.9932 53.0355 14.0203C52.9229 14.0473 52.8148 14.0608 52.7111 14.0608ZM55.2028 14.0608C54.6847 14.0608 54.2748 13.9099 53.9729 13.6081C53.6711 13.3017 53.5202 12.8873 53.5202 12.3647C53.5202 12.0268 53.5878 11.7295 53.7229 11.4727C53.8581 11.2114 54.0428 11.011 54.277 10.8713C54.5158 10.7272 54.7906 10.6551 55.1014 10.6551C55.5474 10.6551 55.8965 10.7992 56.1488 11.0876C56.4011 11.3714 56.5272 11.7633 56.5272 12.2633V12.4728H54.054C54.072 12.8467 54.1802 13.1328 54.3784 13.331C54.5766 13.5247 54.8514 13.6216 55.2028 13.6216C55.401 13.6216 55.5902 13.5923 55.7704 13.5337C55.9506 13.4707 56.1218 13.3693 56.284 13.2297L56.4732 13.6148C56.3245 13.7545 56.1353 13.8649 55.9055 13.9459C55.6758 14.0225 55.4415 14.0608 55.2028 14.0608ZM55.1149 11.0605C54.8041 11.0605 54.5586 11.1574 54.3784 11.3511C54.1982 11.5448 54.0923 11.7993 54.0608 12.1147H56.0542C56.0407 11.7813 55.9528 11.5223 55.7907 11.3376C55.633 11.1529 55.4077 11.0605 55.1149 11.0605Z" fill="white"/>
</svg>
