<svg width="64" height="19" viewBox="0 0 64 19" fill="none" xmlns="http://www.w3.org/2000/svg">
<path d="M10.8914 14.9268L11.0719 15.0796C11.2213 14.9031 11.3661 14.7244 11.5085 14.5412L11.5087 14.5414L11.5143 14.5335C11.5158 14.5314 11.5185 14.5279 11.523 14.5223L11.5392 14.5028L11.5394 14.503L11.5451 14.4955C11.9347 13.9881 12.2914 13.4589 12.6078 12.8921C12.9376 12.303 13.2266 11.6728 13.4676 10.9837L13.5503 10.7473L13.3096 10.6783L11.3581 10.1185L11.3581 10.1185L3.51131 7.86495C3.45537 7.5066 3.40913 7.12943 3.37354 6.73156C4.23649 6.71841 5.03628 6.60067 5.76235 6.38394C6.44114 6.1824 7.0523 5.89225 7.59259 5.51976C8.71388 6.29457 10.1434 6.70797 11.8086 6.73375C11.77 7.1487 11.7221 7.53718 11.6637 7.90193L11.6306 8.10889L11.8321 8.16665L13.7925 8.72869L14.0457 8.80127L14.0907 8.54179C14.3077 7.29203 14.4176 5.86628 14.4176 4.19908V3.89011L14.1195 3.97075L14.1194 3.97076L14.1194 3.97077L14.1192 3.97081L14.1176 3.97123L14.1103 3.97314L14.0795 3.98094C14.052 3.98779 14.0106 3.99773 13.9569 4.00975C13.8495 4.0338 13.6928 4.06611 13.4983 4.09848C13.1087 4.16333 12.5701 4.22798 11.9731 4.22798C10.4125 4.22798 8.55895 3.79352 7.81029 1.91254L7.59055 1.36044L7.37081 1.91254C6.62215 3.79352 4.76863 4.22798 3.208 4.22798C2.61215 4.22798 2.07357 4.16333 1.68364 4.09848C1.48895 4.0661 1.33203 4.03379 1.2244 4.00973C1.1706 3.99771 1.12916 3.98776 1.10154 3.98092L1.07066 3.97311L1.06334 3.9712L1.06177 3.97078L1.06162 3.97074L1.06156 3.97072L1.06152 3.97071L1.06152 3.97071L0.763491 3.89029V4.19908C0.763491 4.40796 0.765734 4.61244 0.770224 4.81474C0.785962 5.77798 0.84213 6.65771 0.936806 7.46702C1.03156 8.28592 1.1671 9.03195 1.33924 9.72274L1.37225 9.85525L1.50352 9.8929L3.82067 10.5575L3.82081 10.5575L10.015 12.3382C9.87074 12.5536 9.72051 12.7615 9.56346 12.9653L9.55588 12.9748L9.55587 12.9748L9.55459 12.9764L9.53005 13.0076L9.52957 13.0083C9.23356 13.3876 8.90599 13.7658 8.55307 14.143C8.24873 14.4683 7.92576 14.7942 7.588 15.1238C6.93634 14.4904 6.3632 13.8948 5.86502 13.2812L5.81814 13.2235L5.74665 13.203L2.73128 12.3376L2.1951 12.1837L2.45728 12.6761C3.61195 14.8445 5.32002 16.4517 7.42935 18.4164L7.59053 18.5665L7.75173 18.4164C9.01438 17.2406 10.1336 16.1917 11.0722 15.0794L10.8914 14.9268ZM10.8914 14.9268C9.96359 16.0264 8.85513 17.0657 7.59055 18.2433L11.3218 14.396C11.1813 14.5767 11.0386 14.7529 10.8914 14.9268Z" fill="url(#paint0_linear_374_32)" stroke="url(#paint1_linear_374_32)" stroke-width="0.473019"/>
<path d="M20.3639 9.08718C19.99 9.08718 19.6522 9.03988 19.3503 8.94528C19.0485 8.84617 18.7872 8.70426 18.5665 8.51956L18.7624 8.07357C18.9922 8.24927 19.2332 8.37991 19.4855 8.4655C19.7377 8.5511 20.0306 8.59389 20.3639 8.59389C20.7694 8.59389 21.069 8.51956 21.2627 8.3709C21.4609 8.21773 21.56 8.01726 21.56 7.76949C21.56 7.57127 21.4879 7.4136 21.3438 7.29647C21.2041 7.17934 20.9676 7.08699 20.6342 7.01942L19.9315 6.87751C19.508 6.78741 19.1904 6.641 18.9787 6.43828C18.7714 6.23105 18.6678 5.95625 18.6678 5.61388C18.6678 5.33006 18.7399 5.08229 18.8841 4.87056C19.0327 4.65883 19.2377 4.4944 19.499 4.37727C19.7603 4.26014 20.0621 4.20158 20.4045 4.20158C20.7243 4.20158 21.0217 4.25338 21.2965 4.357C21.5713 4.45611 21.8033 4.60026 21.9925 4.78947L21.7965 5.22195C21.5938 5.03724 21.3798 4.90435 21.1546 4.82326C20.9293 4.73766 20.677 4.69487 20.3977 4.69487C20.0418 4.69487 19.758 4.77821 19.5463 4.94489C19.3346 5.10707 19.2287 5.32331 19.2287 5.5936C19.2287 5.80984 19.294 5.98103 19.4247 6.10717C19.5598 6.2333 19.7783 6.32566 20.0801 6.38422L20.7829 6.53288C21.2379 6.62749 21.5735 6.77164 21.7897 6.96536C22.0105 7.15456 22.1209 7.4136 22.1209 7.74246C22.1209 8.00825 22.0488 8.24251 21.9046 8.44523C21.765 8.64795 21.5622 8.80563 21.2965 8.91825C21.0352 9.03087 20.7243 9.08718 20.3639 9.08718ZM22.9806 9.02637V4.26239H25.9877V4.72865H23.5212V6.37746H25.8458V6.84372H23.5212V8.56011H25.9877V9.02637H22.9806ZM28.9615 9.08718C28.493 9.08718 28.092 8.98808 27.7587 8.78986C27.4253 8.59164 27.1685 8.31008 26.9883 7.94518C26.8126 7.58028 26.7248 7.14555 26.7248 6.641C26.7248 6.14095 26.8126 5.70848 26.9883 5.34358C27.1685 4.97868 27.4253 4.69712 27.7587 4.4989C28.092 4.30068 28.493 4.20158 28.9615 4.20158C29.2903 4.20158 29.5922 4.25338 29.867 4.357C30.1463 4.46061 30.3828 4.61153 30.5765 4.80974L30.3603 5.26249C30.153 5.06878 29.9368 4.92912 29.7115 4.84353C29.4908 4.75343 29.2453 4.70838 28.975 4.70838C28.4389 4.70838 28.029 4.87732 27.7451 5.21519C27.4613 5.55306 27.3194 6.02833 27.3194 6.641C27.3194 7.25818 27.4613 7.7357 27.7451 8.07357C28.029 8.41144 28.4389 8.58038 28.975 8.58038C29.2453 8.58038 29.4908 8.53758 29.7115 8.45199C29.9368 8.36189 30.153 8.21998 30.3603 8.02627L30.5765 8.47902C30.3828 8.67273 30.1463 8.82364 29.867 8.93176C29.5922 9.03538 29.2903 9.08718 28.9615 9.08718ZM33.3258 9.08718C32.6996 9.08718 32.2243 8.92275 31.8999 8.59389C31.5756 8.26053 31.4134 7.77625 31.4134 7.14105V4.26239H31.9675V7.11402C31.9675 8.1006 32.4203 8.59389 33.3258 8.59389C34.2222 8.59389 34.6705 8.1006 34.6705 7.11402V4.26239H35.2246V7.14105C35.2246 7.77625 35.0624 8.26053 34.7381 8.59389C34.4182 8.92275 33.9474 9.08718 33.3258 9.08718ZM36.3635 9.02637V4.26239H38.2488C38.7624 4.26239 39.1543 4.38177 39.4246 4.62054C39.6994 4.8593 39.8368 5.19942 39.8368 5.6409C39.8368 5.99229 39.7399 6.28061 39.5462 6.50585C39.357 6.7311 39.0867 6.87751 38.7353 6.94508C38.9426 7.01716 39.1205 7.19286 39.2692 7.47216L40.1071 9.02637H39.4989L38.6745 7.49919C38.5709 7.30998 38.4515 7.18159 38.3164 7.11402C38.1812 7.04645 38.0033 7.01266 37.7825 7.01266H36.9176V9.02637H36.3635ZM36.9176 6.57343H38.1677C38.9155 6.57343 39.2894 6.26259 39.2894 5.6409C39.2894 5.02823 38.9155 4.7219 38.1677 4.7219H36.9176V6.57343ZM40.8838 9.02637V4.26239H43.8909V4.72865H41.4244V6.37746H43.749V6.84372H41.4244V8.56011H43.8909V9.02637H40.8838ZM19.9382 15.075C19.6391 15.075 19.3688 15.0372 19.1273 14.9615C18.8859 14.8822 18.6768 14.7687 18.5002 14.6209L18.657 14.2641C18.8408 14.4047 19.0336 14.5092 19.2354 14.5777C19.4373 14.6462 19.6715 14.6804 19.9382 14.6804C20.2626 14.6804 20.5022 14.6209 20.6572 14.502C20.8158 14.3795 20.8951 14.2191 20.8951 14.0209C20.8951 13.8623 20.8374 13.7362 20.7221 13.6424C20.6104 13.5487 20.4211 13.4749 20.1545 13.4208L19.5922 13.3073C19.2535 13.2352 18.9994 13.1181 18.83 12.9559C18.6642 12.7901 18.5813 12.5703 18.5813 12.2964C18.5813 12.0693 18.639 11.8711 18.7543 11.7017C18.8733 11.5323 19.0372 11.4008 19.2463 11.3071C19.4553 11.2134 19.6968 11.1665 19.9707 11.1665C20.2265 11.1665 20.4644 11.208 20.6842 11.2909C20.9041 11.3702 21.0897 11.4855 21.241 11.6369L21.0843 11.9828C20.9221 11.8351 20.7509 11.7288 20.5707 11.6639C20.3905 11.5954 20.1887 11.5612 19.9652 11.5612C19.6805 11.5612 19.4535 11.6278 19.2841 11.7612C19.1147 11.8909 19.03 12.0639 19.03 12.2802C19.03 12.4531 19.0823 12.5901 19.1868 12.691C19.2949 12.7919 19.4697 12.8658 19.7112 12.9126L20.2734 13.0316C20.6374 13.1073 20.9059 13.2226 21.0789 13.3776C21.2555 13.5289 21.3438 13.7362 21.3438 13.9992C21.3438 14.2119 21.2861 14.3993 21.1708 14.5615C21.059 14.7236 20.8969 14.8498 20.6842 14.9399C20.4752 15.03 20.2265 15.075 19.9382 15.075ZM23.2641 15.075C22.965 15.075 22.6947 15.0372 22.4532 14.9615C22.2118 14.8822 22.0027 14.7687 21.8262 14.6209L21.9829 14.2641C22.1667 14.4047 22.3595 14.5092 22.5614 14.5777C22.7632 14.6462 22.9974 14.6804 23.2641 14.6804C23.5885 14.6804 23.8281 14.6209 23.9831 14.502C24.1417 14.3795 24.221 14.2191 24.221 14.0209C24.221 13.8623 24.1633 13.7362 24.048 13.6424C23.9363 13.5487 23.7471 13.4749 23.4804 13.4208L22.9182 13.3073C22.5794 13.2352 22.3253 13.1181 22.1559 12.9559C21.9901 12.7901 21.9072 12.5703 21.9072 12.2964C21.9072 12.0693 21.9649 11.8711 22.0802 11.7017C22.1992 11.5323 22.3631 11.4008 22.5722 11.3071C22.7812 11.2134 23.0227 11.1665 23.2966 11.1665C23.5524 11.1665 23.7903 11.208 24.0101 11.2909C24.23 11.3702 24.4156 11.4855 24.567 11.6369L24.4102 11.9828C24.248 11.8351 24.0768 11.7288 23.8966 11.6639C23.7164 11.5954 23.5146 11.5612 23.2912 11.5612C23.0064 11.5612 22.7794 11.6278 22.61 11.7612C22.4406 11.8909 22.3559 12.0639 22.3559 12.2802C22.3559 12.4531 22.4082 12.5901 22.5127 12.691C22.6208 12.7919 22.7956 12.8658 23.0371 12.9126L23.5993 13.0316C23.9633 13.1073 24.2318 13.2226 24.4048 13.3776C24.5814 13.5289 24.6697 13.7362 24.6697 13.9992C24.6697 14.2119 24.612 14.3993 24.4967 14.5615C24.385 14.7236 24.2228 14.8498 24.0101 14.9399C23.8011 15.03 23.5524 15.075 23.2641 15.075ZM25.3575 15.0264V11.2152H25.8008V14.6371H27.7415V15.0264H25.3575ZM29.6812 15.0264V11.2152H32.0868V11.5882H30.1137V12.9072H31.9733V13.2803H30.1137V14.6534H32.0868V15.0264H29.6812ZM32.8329 15.0264V11.2152H33.1789L35.4764 14.2803V11.2152H35.8872V15.0264H35.5521L33.2491 11.9504V15.0264H32.8329ZM38.4833 15.075C38.1085 15.075 37.7878 14.9957 37.5211 14.8372C37.2544 14.6786 37.049 14.4533 36.9048 14.1614C36.7643 13.8695 36.694 13.5217 36.694 13.1181C36.694 12.718 36.7643 12.3721 36.9048 12.0801C37.049 11.7882 37.2544 11.563 37.5211 11.4044C37.7878 11.2458 38.1085 11.1665 38.4833 11.1665C38.7464 11.1665 38.9879 11.208 39.2077 11.2909C39.4312 11.3738 39.6204 11.4945 39.7754 11.6531L39.6024 12.0153C39.4366 11.8603 39.2636 11.7486 39.0834 11.6801C38.9068 11.608 38.7104 11.572 38.4941 11.572C38.0653 11.572 37.7373 11.7071 37.5103 11.9774C37.2832 12.2477 37.1697 12.6279 37.1697 13.1181C37.1697 13.6118 37.2832 13.9938 37.5103 14.2641C37.7373 14.5344 38.0653 14.6696 38.4941 14.6696C38.7104 14.6696 38.9068 14.6353 39.0834 14.5669C39.2636 14.4948 39.4366 14.3813 39.6024 14.2263L39.7754 14.5885C39.6204 14.7435 39.4312 14.8642 39.2077 14.9507C38.9879 15.0336 38.7464 15.075 38.4833 15.075ZM40.4719 15.0264V11.2152H41.9802C42.391 11.2152 42.7046 11.3107 42.9208 11.5017C43.1406 11.6927 43.2506 11.9648 43.2506 12.318C43.2506 12.5991 43.1731 12.8298 43.0181 13.01C42.8667 13.1902 42.6505 13.3073 42.3694 13.3613C42.5352 13.419 42.6775 13.5596 42.7965 13.783L43.4668 15.0264H42.9803L42.3207 13.8046C42.2379 13.6533 42.1423 13.5505 42.0342 13.4965C41.9261 13.4424 41.7838 13.4154 41.6072 13.4154H40.9152V15.0264H40.4719ZM40.9152 13.064H41.9153C42.5136 13.064 42.8127 12.8153 42.8127 12.318C42.8127 11.8279 42.5136 11.5828 41.9153 11.5828H40.9152V13.064ZM44.9755 15.0264V13.2208L43.5159 11.2152H44.0349L45.208 12.8316L46.3757 11.2152H46.8784L45.4188 13.2316V15.0264H44.9755ZM47.3613 15.0264V11.2152H48.8696C49.2804 11.2152 49.594 11.3143 49.8102 11.5125C50.03 11.7107 50.14 11.9936 50.14 12.3612C50.14 12.7252 50.03 13.0082 49.8102 13.21C49.594 13.4082 49.2804 13.5073 48.8696 13.5073H47.8046V15.0264H47.3613ZM47.8046 13.1343H48.8155C49.4065 13.1343 49.7021 12.8766 49.7021 12.3612C49.7021 11.8423 49.4065 11.5828 48.8155 11.5828H47.8046V13.1343ZM51.6172 15.0264V11.599H50.2332V11.2152H53.4498V11.599H52.0659V15.0264H51.6172ZM53.9339 15.0264V11.2152H54.3772V15.0264H53.9339ZM56.9173 15.075C56.5641 15.075 56.2559 14.9957 55.9928 14.8372C55.7334 14.675 55.5315 14.4479 55.3874 14.156C55.2468 13.8641 55.1765 13.5181 55.1765 13.1181C55.1765 12.718 55.2468 12.3721 55.3874 12.0801C55.5279 11.7882 55.728 11.563 55.9874 11.4044C56.2505 11.2458 56.5605 11.1665 56.9173 11.1665C57.2777 11.1665 57.5876 11.2458 57.8471 11.4044C58.1102 11.563 58.312 11.7882 58.4525 12.0801C58.5967 12.3685 58.6688 12.7126 58.6688 13.1127C58.6688 13.5127 58.5967 13.8605 58.4525 14.156C58.3084 14.4479 58.1048 14.675 57.8417 14.8372C57.5822 14.9957 57.274 15.075 56.9173 15.075ZM56.9173 14.6804C57.3245 14.6804 57.6398 14.5434 57.8633 14.2695C58.0867 13.9956 58.1985 13.6118 58.1985 13.1181C58.1985 12.6243 58.0867 12.2423 57.8633 11.972C57.6398 11.6981 57.3245 11.5612 56.9173 11.5612C56.5172 11.5612 56.2055 11.6981 55.982 11.972C55.7586 12.2423 55.6469 12.6243 55.6469 13.1181C55.6469 13.6082 55.7586 13.992 55.982 14.2695C56.2055 14.5434 56.5172 14.6804 56.9173 14.6804ZM59.4613 15.0264V11.2152H59.8073L62.1048 14.2803V11.2152H62.5156V15.0264H62.1805L59.8776 11.9504V15.0264H59.4613Z" fill="white"/>
<defs>
<linearGradient id="paint0_linear_374_32" x1="3.02722" y1="4.03999" x2="10.4604" y2="15.8655" gradientUnits="userSpaceOnUse">
<stop stop-color="#00E18F"/>
<stop offset="1" stop-color="#008051"/>
</linearGradient>
<linearGradient id="paint1_linear_374_32" x1="7.59055" y1="2" x2="7.59055" y2="18.2433" gradientUnits="userSpaceOnUse">
<stop stop-color="white"/>
<stop offset="1" stop-color="#6E6E6E" stop-opacity="0"/>
</linearGradient>
</defs>
</svg>
