<svg width="15" height="19" viewBox="0 0 15 19" fill="none" xmlns="http://www.w3.org/2000/svg">
<path d="M10.8914 14.9268L11.0719 15.0796C11.2213 14.9031 11.3661 14.7244 11.5085 14.5412L11.5087 14.5414L11.5143 14.5335C11.5158 14.5314 11.5185 14.5279 11.523 14.5223L11.5392 14.5028L11.5394 14.503L11.5451 14.4955C11.9347 13.9881 12.2914 13.4589 12.6078 12.8921C12.9376 12.303 13.2266 11.6728 13.4676 10.9837L13.5503 10.7473L13.3096 10.6783L11.3581 10.1185L11.3581 10.1185L3.51131 7.86495C3.45537 7.5066 3.40913 7.12943 3.37354 6.73156C4.23649 6.71841 5.03628 6.60067 5.76235 6.38394C6.44114 6.1824 7.0523 5.89225 7.59259 5.51976C8.71388 6.29457 10.1434 6.70797 11.8086 6.73375C11.77 7.1487 11.7221 7.53718 11.6637 7.90193L11.6306 8.10889L11.8321 8.16665L13.7925 8.72869L14.0457 8.80127L14.0907 8.54179C14.3077 7.29203 14.4176 5.86628 14.4176 4.19908V3.89011L14.1195 3.97075L14.1194 3.97076L14.1194 3.97077L14.1192 3.97081L14.1176 3.97123L14.1103 3.97314L14.0795 3.98094C14.052 3.98779 14.0106 3.99773 13.9569 4.00975C13.8495 4.0338 13.6928 4.06611 13.4983 4.09848C13.1087 4.16333 12.5701 4.22798 11.9731 4.22798C10.4125 4.22798 8.55895 3.79352 7.81029 1.91254L7.59055 1.36044L7.37081 1.91254C6.62215 3.79352 4.76863 4.22798 3.208 4.22798C2.61215 4.22798 2.07357 4.16333 1.68364 4.09848C1.48895 4.0661 1.33203 4.03379 1.2244 4.00973C1.1706 3.99771 1.12916 3.98776 1.10154 3.98092L1.07066 3.97311L1.06334 3.9712L1.06177 3.97078L1.06162 3.97074L1.06156 3.97072L1.06152 3.97071L1.06152 3.97071L0.763491 3.89029V4.19908C0.763491 4.40796 0.765734 4.61244 0.770224 4.81474C0.785962 5.77798 0.84213 6.65771 0.936806 7.46702C1.03156 8.28592 1.1671 9.03195 1.33924 9.72274L1.37225 9.85525L1.50352 9.8929L3.82067 10.5575L3.82081 10.5575L10.015 12.3382C9.87074 12.5536 9.72051 12.7615 9.56346 12.9653L9.55588 12.9748L9.55587 12.9748L9.55459 12.9764L9.53005 13.0076L9.52957 13.0083C9.23356 13.3876 8.90599 13.7658 8.55307 14.143C8.24873 14.4683 7.92576 14.7942 7.588 15.1238C6.93634 14.4904 6.3632 13.8948 5.86502 13.2812L5.81814 13.2235L5.74665 13.203L2.73128 12.3376L2.1951 12.1837L2.45728 12.6761C3.61195 14.8445 5.32002 16.4517 7.42935 18.4164L7.59053 18.5665L7.75173 18.4164C9.01438 17.2406 10.1336 16.1917 11.0722 15.0794L10.8914 14.9268ZM10.8914 14.9268C9.96359 16.0264 8.85513 17.0657 7.59055 18.2433L11.3218 14.396C11.1813 14.5767 11.0386 14.7529 10.8914 14.9268Z" fill="url(#paint0_linear_0_512)" stroke="url(#paint1_linear_0_512)" stroke-width="0.473019"/>
<defs>
<linearGradient id="paint0_linear_0_512" x1="3.02722" y1="4.03999" x2="10.4604" y2="15.8655" gradientUnits="userSpaceOnUse">
<stop stop-color="#00E18F"/>
<stop offset="1" stop-color="#008051"/>
</linearGradient>
<linearGradient id="paint1_linear_0_512" x1="7.59055" y1="2" x2="7.59055" y2="18.2433" gradientUnits="userSpaceOnUse">
<stop stop-color="white"/>
<stop offset="1" stop-color="#6E6E6E" stop-opacity="0"/>
</linearGradient>
</defs>
</svg>
