<svg width="17" height="13" viewBox="0 0 17 13" fill="none" xmlns="http://www.w3.org/2000/svg">
<mask id="mask0_217_13" style="mask-type:alpha" maskUnits="userSpaceOnUse" x="0" y="0" width="17" height="13">
<rect x="0.331543" y="0.0270996" width="16.2178" height="12.1633" rx="1.01361" fill="#D9D9D9"/>
</mask>
<g mask="url(#mask0_217_13)">
<path fill-rule="evenodd" clip-rule="evenodd" d="M0.331543 0.0270996V12.1904H16.5493V0.0270996H0.331543Z" fill="#2E42A5"/>
<mask id="mask1_217_13" style="mask-type:alpha" maskUnits="userSpaceOnUse" x="0" y="0" width="17" height="13">
<path fill-rule="evenodd" clip-rule="evenodd" d="M0.331543 0.0270996V12.1904H16.5493V0.0270996H0.331543Z" fill="white"/>
</mask>
<g mask="url(#mask1_217_13)">
<mask id="mask2_217_13" style="mask-type:alpha" maskUnits="userSpaceOnUse" x="0" y="0" width="17" height="13">
<path d="M0.331543 0.0270996H16.5493V12.1904H0.331543V0.0270996Z" fill="white"/>
</mask>
<g mask="url(#mask2_217_13)">
<path d="M-1.47363 11.3214L2.09529 12.8312L16.6305 1.66829L18.5133 -0.57483L14.697 -1.0791L8.7684 3.73099L3.99632 6.97252L-1.47363 11.3214Z" fill="white"/>
<path d="M-0.986328 12.379L0.832597 13.2548L17.8364 -0.783203H15.2837L-0.985821 12.3785L-0.986328 12.379Z" fill="#F50100"/>
<path d="M18.3555 11.3214L14.7866 12.8312L0.251436 1.66829L-1.63135 -0.57483L2.1849 -1.0791L8.11351 3.73099L12.8856 6.97252L18.3555 11.3214Z" fill="white"/>
<path d="M18.2337 12.0807L16.4153 12.9565L9.17507 6.94575L7.02824 6.27474L-1.81299 -0.567139H0.740299L9.57595 6.11256L11.923 6.91737L18.2337 12.0807Z" fill="#F50100"/>
<mask id="mask3_217_13" style="mask-type:alpha" maskUnits="userSpaceOnUse" x="-1" y="-1" width="19" height="15">
<path fill-rule="evenodd" clip-rule="evenodd" d="M10.356 -0.986572H6.52661V4.08148H-0.666992V8.13593H6.52661V13.204H10.356V8.13593H17.578V4.08148H10.356V-0.986572Z" fill="white"/>
</mask>
<g mask="url(#mask3_217_13)">
<path fill-rule="evenodd" clip-rule="evenodd" d="M10.356 -0.986572H6.52661V4.08148H-0.666992V8.13593H6.52661V13.204H10.356V8.13593H17.578V4.08148H10.356V-0.986572Z" fill="#F50100"/>
<path d="M6.52606 -0.986389V-2H5.51245V-0.986389H6.52606ZM10.3555 -0.986389H11.3691V-2H10.3555V-0.986389ZM6.52606 4.08167V5.09528H7.53967V4.08167H6.52606ZM-0.667541 4.08167V3.06806H-1.68115V4.08167H-0.667541ZM-0.667541 8.13611H-1.68115V9.14973H-0.667541V8.13611ZM6.52606 8.13611H7.53967V7.1225H6.52606V8.13611ZM6.52606 13.2042H5.51245V14.2178H6.52606V13.2042ZM10.3555 13.2042V14.2178H11.3691V13.2042H10.3555ZM10.3555 8.13611V7.1225H9.34187V8.13611H10.3555ZM17.5775 8.13611V9.14973H18.5911V8.13611H17.5775ZM17.5775 4.08167H18.5911V3.06806H17.5775V4.08167ZM10.3555 4.08167H9.34187V5.09528H10.3555V4.08167ZM6.52606 0.0272229H10.3555V-2H6.52606V0.0272229ZM7.53967 4.08167V-0.986389H5.51245V4.08167H7.53967ZM-0.667541 5.09528H6.52606V3.06806H-0.667541V5.09528ZM0.346071 8.13611V4.08167H-1.68115V8.13611H0.346071ZM6.52606 7.1225H-0.667541V9.14973H6.52606V7.1225ZM7.53967 13.2042V8.13611H5.51245V13.2042H7.53967ZM10.3555 12.1906H6.52606V14.2178H10.3555V12.1906ZM9.34187 8.13611V13.2042H11.3691V8.13611H9.34187ZM17.5775 7.1225H10.3555V9.14973H17.5775V7.1225ZM16.5639 4.08167V8.13611H18.5911V4.08167H16.5639ZM10.3555 5.09528H17.5775V3.06806H10.3555V5.09528ZM9.34187 -0.986389V4.08167H11.3691V-0.986389H9.34187Z" fill="white"/>
</g>
</g>
</g>
</g>
</svg>
