<svg width="12" height="12" viewBox="0 0 12 12" fill="none" xmlns="http://www.w3.org/2000/svg">
<path d="M5.4 4.2H6.6V3H5.4M6 10.8C3.354 10.8 1.2 8.646 1.2 6C1.2 3.354 3.354 1.2 6 1.2C8.646 1.2 10.8 3.354 10.8 6C10.8 8.646 8.646 10.8 6 10.8ZM6 0C5.21207 0 4.43185 0.155195 3.7039 0.456723C2.97595 0.758251 2.31451 1.20021 1.75736 1.75736C0.632141 2.88258 0 4.4087 0 6C0 7.5913 0.632141 9.11742 1.75736 10.2426C2.31451 10.7998 2.97595 11.2417 3.7039 11.5433C4.43185 11.8448 5.21207 12 6 12C7.5913 12 9.11742 11.3679 10.2426 10.2426C11.3679 9.11742 12 7.5913 12 6C12 5.21207 11.8448 4.43185 11.5433 3.7039C11.2417 2.97595 10.7998 2.31451 10.2426 1.75736C9.68549 1.20021 9.02405 0.758251 8.2961 0.456723C7.56815 0.155195 6.78793 0 6 0ZM5.4 9H6.6V5.4H5.4V9Z" fill="#172C3B"/>
</svg>
