<svg width="161" height="39" viewBox="0 0 161 39" fill="none" xmlns="http://www.w3.org/2000/svg">
<path d="M7.66 28C13.42 28 18.54 24.12 20.5 21.52C20.74 21.2 20.78 21.08 20.78 20.92C20.78 20.8 20.74 20.72 20.62 20.72C20.5 20.72 20.42 20.72 20.1 21.08C17.9 23.56 13.34 26.56 9.1 26.56C5.78 26.56 4.14 25.08 4.14 22.56C4.14 18.64 9.06 14.2 14.22 14.2C15.86 14.2 16.94 14.44 17.26 14.44C17.46 14.44 17.5 14.4 17.5 14.24C17.5 13.88 17.3 12.04 16.06 11.88C15.66 11.8 14.26 12 12.78 12C10.78 12 9.82 11.28 9.82 9.16C9.82 5.32 14.78 1.76 19.54 1.76C21.58 1.76 22.58 2.68 22.58 4C22.58 5.72 21.14 7.44 20.14 8.16C19.82 8.4 19.7 8.52 19.7 8.64C19.7 8.96 20.3 9.32 21.06 9.32C22.7 9.32 24.14 7.12 24.14 4.72C24.14 2.04 22.06 0 18.3 0C13.02 0 6.82 4.24 6.82 8.6C6.82 10.76 8.26 12.2 10.46 12.64C5.86 13.32 0.5 17.68 0.5 21.64C0.5 25.88 3.82 28 7.66 28Z" fill="#C4C4C4"/>
<path d="M24.3572 20.88C25.0372 20.88 27.1972 20.48 29.3172 20.48C30.1972 20.48 30.6772 20.6 30.9972 20.72C31.1972 20.56 31.3972 20.24 31.3972 19.84C31.3972 19.08 30.8372 18.52 29.0772 18.52C27.1172 18.52 24.7572 18.84 23.4372 19C23.1572 20.08 23.5172 20.88 24.3572 20.88Z" fill="#C4C4C4"/>
<path d="M39.17 27.52C36.33 27.52 34.97 26.28 34.97 24.48C34.97 22.48 36.73 20.32 38.01 19.48C38.33 19.24 38.45 19.12 38.45 19C38.45 18.68 37.93 18.32 37.29 18.32C35.21 18.32 33.41 20.88 33.41 23.64C33.41 27.12 35.85 29.72 40.29 29.72C45.57 29.72 50.49 25.76 50.49 21.64C50.49 19.4 49.97 18.12 46.65 14.72C44.93 12.92 44.13 11.68 44.13 9.88C44.13 6.08 48.89 1.76 52.77 1.76C54.89 1.76 55.93 2.88 55.93 4.44C55.93 6.6 54.13 8.8 52.81 9.68C52.49 9.92 52.37 10.04 52.37 10.16C52.37 10.48 52.97 10.84 53.73 10.84C55.73 10.84 57.49 8.16 57.49 5.28C57.49 2.28 55.37 0 51.53 0C46.89 0 40.73 5.08 40.73 9.64C40.73 12.68 42.09 14.52 45.57 17.44C47.89 19.4 48.49 20.32 48.49 21.64C48.49 24.56 43.97 27.52 39.17 27.52Z" fill="#C4C4C4"/>
<path d="M56.1009 26.84C54.6209 26.84 53.4209 25.76 53.4209 23.4C53.4209 20.68 57.1809 13.8 59.1409 13.8C59.7809 13.8 60.6609 14.64 60.6609 15.04C60.6609 15.28 60.4609 15.44 59.9809 16.04C56.8209 20.08 55.7809 22.28 55.7809 24.08C55.7809 25 56.1409 25.44 56.9409 25.44C59.2209 25.44 61.9809 21.88 63.0209 20.44C63.2609 20.08 63.3809 20.04 63.5009 20.04C63.6209 20.04 63.7409 20.12 63.7409 20.28C63.7409 20.44 63.5809 20.64 63.4609 20.84C62.1409 22.92 58.9409 26.84 56.1009 26.84ZM64.5809 8.72C64.7409 8 64.1409 7.12 63.4609 7C62.6609 6.84 61.4609 8.16 61.2209 9.48C61.0609 10.4 61.6609 11 62.3009 11.12C63.0609 11.24 64.3809 9.8 64.5809 8.72Z" fill="#C4C4C4"/>
<path d="M71.1253 23.4C70.9653 24.36 70.7253 26.24 70.4853 28.36C69.9653 32.68 67.8053 37.88 64.2453 37.88C62.8053 37.88 61.8053 36.92 61.8053 35.36C61.8053 33.32 63.4053 30.8 65.6453 29.68C66.0853 29.48 66.3253 29.28 66.3253 29.04C66.3253 28.8 66.1253 28.68 65.8053 28.68C65.6853 28.68 65.4853 28.72 65.1253 28.88C62.3653 30.12 59.6853 32.52 59.6853 34.96C59.6853 37.56 61.5653 39 64.8853 39C69.8853 39 72.3653 33.8 72.8453 29.12C73.2053 25.72 73.5253 23.16 73.8853 21.6C74.5253 18.76 76.2053 16.8 76.2053 16.44C76.2053 16.28 75.8853 15.76 75.1653 15.76C74.6053 15.76 73.4853 17.36 72.1653 19.08C69.4853 22.6 66.3253 24.76 65.2053 24.76C64.8453 24.76 64.5253 24.48 64.5253 23.68C64.5253 20.64 70.1653 13.68 74.8453 13.68C75.1653 13.68 75.7253 13.88 75.9253 13.96C76.2853 14.12 76.4853 13.84 76.2453 13.52C75.8453 12.96 74.8853 12.44 73.6853 12.44C68.5253 12.44 61.6053 19 61.6053 23.72C61.6053 25.6 62.8053 26.32 63.8453 26.32C65.9653 26.32 68.7253 23.84 71.0053 21.52C71.2853 21.2 71.5653 20.96 71.7653 20.72C71.4853 21.44 71.2853 22.28 71.1253 23.4Z" fill="#C4C4C4"/>
<path d="M76.8806 25.72C76.8806 26.92 78.0406 27.44 78.4806 27.44C78.6806 27.44 78.8006 27.36 78.9606 27.08C83.2006 19.64 87.4806 16.88 88.5206 16.88C88.7606 16.88 88.9606 17.04 88.9606 17.32C88.9606 18.12 86.7206 20.8 86.7206 22.8C86.7206 24.32 87.9606 25.36 89.5606 25.36C92.0406 25.36 94.8006 22.4 95.8406 20.76C95.9606 20.56 96.1206 20.36 96.1206 20.2C96.1206 20.04 96.0006 19.96 95.8806 19.96C95.7606 19.96 95.6406 20 95.4006 20.36C94.6806 21.36 92.5206 23.8 90.7206 23.8C89.9606 23.8 89.4406 23.48 89.4406 22.52C89.4406 20.76 91.4006 18.64 91.4006 17.08C91.4006 15.92 90.3606 15.32 89.4806 15.32C86.8806 15.32 82.3606 20 79.4406 24.16C80.4006 21.08 82.2006 17.72 83.6806 15.68C84.1206 15.08 84.3606 14.92 84.3606 14.68C84.3606 14.2 83.4006 13.16 82.6806 13.16C80.6006 13.16 76.8806 23.24 76.8806 25.72Z" fill="#C4C4C4"/>
<path d="M108.149 14.72C108.509 14.88 108.709 14.6 108.469 14.28C108.069 13.72 107.389 13.32 106.189 13.32C100.909 13.32 93.7891 19.88 93.7891 24.6C93.7891 26.48 94.9891 27.2 96.0291 27.2C98.1491 27.2 100.909 24.6 103.029 22.08C102.789 22.68 102.709 23.12 102.709 23.72C102.709 25.16 103.749 26.2 105.229 26.2C108.069 26.2 111.109 22.64 112.349 20.68C112.549 20.36 112.589 20.24 112.589 20.08C112.589 19.96 112.509 19.88 112.389 19.88C112.269 19.88 112.189 19.92 111.909 20.28C110.909 21.6 108.189 25.04 105.869 25.04C105.269 25.04 104.789 24.72 104.789 23.72C104.789 22 106.749 20.16 106.749 19.32C106.749 18.72 105.949 17.76 105.469 17.76C105.229 17.76 105.069 18.2 103.789 19.84C101.149 23.2 98.4691 25.64 97.3891 25.64C97.0291 25.64 96.7091 25.36 96.7091 24.56C96.7091 21.52 102.509 14.56 107.349 14.56C107.669 14.56 107.949 14.64 108.149 14.72Z" fill="#C4C4C4"/>
<path d="M121.235 11.92C120.475 11.92 119.475 12.04 118.395 12.2C119.475 10.6 120.475 9.44 121.155 8.96C121.675 8.6 121.915 8.56 121.915 8.36C121.915 8.04 121.115 7.24 120.195 7.24C118.835 7.24 116.875 9.6 115.115 12.68C114.555 12.72 114.035 12.76 113.635 12.76C112.355 12.76 111.955 12.4 111.675 12.4C111.595 12.4 111.515 12.48 111.515 12.6C111.515 13 112.195 14.28 113.995 14.28H114.235C112.475 17.72 111.155 21.68 111.155 24.4C111.155 27.64 112.675 29.28 113.155 29.28C113.355 29.28 113.515 29.16 113.515 28.92C113.515 28.52 113.035 27.92 113.035 26.12C113.035 22.36 115.315 17.24 117.555 13.52C118.715 13.16 119.955 12.84 121.235 12.84C122.555 12.84 123.035 13.4 123.035 14.44C123.035 17.24 118.715 21.52 118.715 24.44C118.715 26.24 120.035 27.08 121.635 27.08C123.115 27.08 125.635 24.64 127.755 21.96C127.675 22.24 127.635 22.52 127.635 22.76C127.635 24.92 128.875 25.92 130.435 25.92C133.155 25.92 136.275 22.6 137.435 20.76C137.555 20.56 137.715 20.36 137.715 20.2C137.715 20.04 137.595 19.96 137.475 19.96C137.355 19.96 137.235 20 136.995 20.36C136.075 21.6 133.275 24.52 131.275 24.52C130.395 24.52 130.035 24.12 130.035 23.28C130.035 22.04 130.715 20.56 132.875 17.8C133.355 17.2 133.555 17.04 133.555 16.8C133.555 16.4 132.675 15.56 132.035 15.56C131.315 15.56 130.035 17.12 129.035 18.84C127.435 21.12 123.675 25.68 122.195 25.68C121.555 25.68 121.235 25.28 121.235 24.4C121.235 22.2 125.235 17.48 125.235 14.96C125.235 13.2 124.035 11.92 121.235 11.92Z" fill="#C4C4C4"/>
<path d="M137.791 14.16C137.791 14.4 137.911 14.32 137.911 15.08C137.911 15.56 137.831 17.12 136.831 20.08C135.871 22.96 134.911 24.68 134.911 25.24C134.911 25.76 135.911 26.68 136.511 26.68C137.311 26.68 137.351 24.84 139.471 21.32C142.431 16.44 145.231 15.04 146.951 15.04C147.831 15.04 148.151 15.4 148.391 15.4C148.551 15.4 148.671 15.28 148.671 15.12C148.671 14.64 147.871 12.84 146.031 12.84C143.591 12.84 141.791 16.2 138.991 20.4C140.111 17.6 140.511 16.28 140.511 15.6C140.511 14.36 139.031 13.88 138.231 13.88C137.871 13.88 137.791 14 137.791 14.16Z" fill="#C4C4C4"/>
<path d="M146.298 23.12C146.298 25.76 147.778 27.04 150.258 27.04C154.178 27.04 158.618 23 160.258 20.72C160.498 20.4 160.538 20.28 160.538 20.12C160.538 20 160.498 19.92 160.378 19.92C160.258 19.92 160.138 19.92 159.858 20.28C158.458 21.92 154.498 25.72 151.058 25.72C149.698 25.72 149.098 25.16 149.098 23.96C149.098 23.2 149.298 22.32 149.658 21.4C154.378 20.36 158.018 17.48 158.018 15.52C158.018 14.4 157.338 13.6 155.418 13.6C151.898 13.6 146.298 18.76 146.298 23.12ZM156.538 15.08C156.538 16.28 153.658 19.6 150.018 20.6C151.458 17.6 154.218 14.56 156.018 14.52C156.338 14.52 156.538 14.68 156.538 15.08Z" fill="#C4C4C4"/>
</svg>
